<?xml version="1.0"?>
<svg
xmlns:dc="http://purl.org/dc/elements/1.1/"
xmlns:cc="http://creativecommons.org/ns#"
xmlns:rdf="http://www.w3.org/1999/02/22-rdf-syntax-ns#"
xmlns:svg="http://www.w3.org/2000/svg"
xmlns="http://www.w3.org/2000/svg"
xmlns:sodipodi="http://sodipodi.sourceforge.net/DTD/sodipodi-0.dtd"
xmlns:inkscape="http://www.inkscape.org/namespaces/inkscape"
version="1.0"
width="100%"
height="100%"
preserveAspectRatio="xMidYMin meet"
viewBox="0 0 1000 560"
id="svg2"
sodipodi:version="0.32"
inkscape:version="0.46"
sodipodi:docname="Amestris_map.svg"
inkscape:output_extension="org.inkscape.output.svg.inkscape">
<metadata
  id="metadata73">
 <rdf:RDF>
   <cc:Work
      rdf:about="">
     <dc:format>image/svg+xml</dc:format>
     <dc:type
        rdf:resource="http://purl.org/dc/dcmitype/StillImage" />
   </cc:Work>
 </rdf:RDF>
</metadata>
<sodipodi:namedview
  inkscape:window-height="480"
  inkscape:window-width="640"
  inkscape:pageshadow="2"
  inkscape:pageopacity="0.0"
  guidetolerance="10.0"
  gridtolerance="10.0"
  objecttolerance="10.0"
  borderopacity="1.0"
  bordercolor="#666666"
  pagecolor="#ffffff"
  id="base"
  showgrid="false" />
<defs
  id="defs5">
 <inkscape:perspective
    sodipodi:type="inkscape:persp3d"
    inkscape:vp_x="0 : 207.91446 : 1"
    inkscape:vp_y="0 : 1000 : 0"
    inkscape:vp_z="492.18979 : 207.91446 : 1"
    inkscape:persp3d-origin="246.09489 : 138.60964 : 1"
    id="perspective75" />
 <style
    type="text/css"
    id="style5">
     .area {
       fill: #fff;
       fill-opacity: 1;
       fill-rule: evenodd;
       stroke: #000;
       stroke-width: 2px;
       stroke-linecap: butt;
       stroke-linejoin: miter;
       stroke-opacity: 1;
     }
     .area:hover{
     -webkit-filter: drop-shadow( -5px -5px 5px #000 );
         filter: drop-shadow( -5px -5px 5px #000 );
     }
     .city {
       opacity: 1;
       fill: #ffffff;
       fill-opacity: 1;
       fill-rule: evenodd;
       stroke: #000000;
       stroke-width: 1.70000005;
       stroke-linecap: butt;
       stroke-linejoin: miter;
       marker: none;
       marker-start: none;
       marker-mid: none;
       marker-end: none;
       stroke-miterlimit: 4;
       stroke-dasharray: none;
       stroke-dashoffset: 0;
       stroke-opacity: 1;
       display: inline;
       overflow: visible;
       enable-background: accumulate;
     }
     .titleline {
       fill: none;
       fill-rule: evenodd;
       stroke: #000000;
       stroke-width: 1px;
       stroke-linecap: butt;
       stroke-linejoin: miter;
       stroke-opacity: 1;
     }
     .titlebox {
       opacity:1;
       fill: #ffffff;
       fill-opacity: 1;
       fill-rule: evenodd;
       stroke: #000000;
       stroke-width: 1.22483253;
       stroke-linecap: butt;
       stroke-linejoin: miter;
       marker: none;
       marker-start: none;
       marker-mid: none;
       marker-end: none;
       stroke-miterlimit: 4;
       stroke-dasharray: none;
       stroke-dashoffset: 0;
       stroke-opacity: 1;
       visibility: visible;
       display: inline;
       overflow: visible;
       enable-background: accumulate;
     }
     .citytitle {
       font-size: 13px;
       font-style: normal;
       font-variant: normal;
       font-weight: normal;
       font-stretch: normal;
       text-align: center;
       line-height: 100%;
       writing-mode: lr-tb;
       text-anchor: middle;
       fill: #000000;
       fill-opacity: 1;
       stroke: none;
       stroke-width: 1px;
       stroke-linecap: butt;
       stroke-linejoin: miter;
       stroke-opacity: 1;
       font-family: Arial;
       -inkscape-font-specification: Arial;
     }
     .areatitle {
       font-size: 13px;
       font-style: normal;
       font-variant: normal;
       font-weight: normal;
       font-stretch: normal;
       text-align: center;
       line-height: 100%;
       writing-mode: lr-tb;
       text-anchor: middle;
       fill: #000000;
       fill-opacity: 1;
       stroke: none;
       stroke-width: 1px;
       stroke-linecap: butt;
       stroke-linejoin: miter;
       stroke-opacity: 1;
       font-family: Arial;
       -inkscape-font-specification: Arial;
     }

     .area:hover, .area.highlight {
       fill: #B6304F;
     }
     .city:hover, .city.highlight {
       fill: yellow;
       stroke: red;
     }

     .selected {
       fill: #CCCCFF;
     }

     .hidden {
       visibility: hidden;
     }

     text.areavals {
       font-size: 20px;
       font-style: normal;
       font-weight: normal;
       line-height: 125%;
       letter-spacing: 0px;
       word-spacing: 0px;
       fill: #000000;
       fill-opacity: 1;
       stroke: none;
       font-family: sans;
     }
 </style>
</defs>
<path
   d="M307.8 377.7l0.5 12.9-7.7-5.2 0.3-0.5 0.6-1.2 0.9-0.7 0.9-0.6 1-0.9 0.9-1 0.6-0.7 0.4-1.1 0.1-1.3-0.1-1 0-1.1 0.2-0.5 0.6-0.3 0.3-0.2 0.3 0.2 0 0.1 0 0.6-0.2 1.1 0.2 1.2 0.2 0.2z m120.6-88l4.7 7.8 1 2.2-2.4 2.6-30.9 22.5-2.2 0.1-2.8-1.4-2.3-0.3-2.3-0.7 0.5-1.6-3.7-5.5-3.6-3.6-3-1-4.6-7.4-7 0-6 1.5-5.3 7.5-2.3 6-6.1 9.4-5.6-0.4-2.4 2.4-0.7 4.3-5.9 1.4-6.1 4.5-6.1 6.4-13.6 18.2-0.9 3.8-0.8 0.1-0.5-0.2-0.2-0.6-1.2-0.1-0.3 0.1-0.1 0.3 0 0.3 0.2 0.6 0 0.1-0.3 0.4-0.4 0-1.5-0.4-0.1 0-0.5 0.3-0.5 0.2-0.2 0.2-0.5 0.9-0.3 0.4-0.4 0.1-0.2-0.1-0.3 0.1-0.2 0.2-0.8 1.4-0.1 0.4-0.5 1.5-0.4 1.1-0.1 0.4 0 0.6-0.1 0.4-0.2 0.9-0.1 0.8-0.1 0.7 0 0.6-0.1 0.6-0.1 0.2-0.6 0.7-0.1 0.2-0.1 0.6-0.2 0.5-0.2-0.2-0.6-0.2-0.6-0.1-2 0.6-5.9 1.7-5.6 1.7-12.2 3.7-6.9 2.2-6.9 2.3-5.1 1.6 0-0.2-4-27.4-1.7-4.6-1.3-2.5-0.5-2.2-0.5-1.8-2-3-0.6-3.7-19-7.2-5-4.7-3-4.5-2.2-5.4-2-3.1 0.1-5.2 1.8-12.6-0.3-4.2-2.2-9.1-2.4-2.9 0.1-4-0.9-4.4-1.1-4 0.6-4.6 0.6-0.8 0.1-2-1.2-4.1-2.2-0.2-1.1-0.9-0.8-1.4-1.3-0.2-1 0.7-1.1 1.7-1.2 3.3-9.1-2.1 0.5-1.3-0.3-1.8 0.1-3.5-0.7-4.2-1.9-4.5-1.8 2.6-0.9-0.6-0.2-1.1-2.8-1.5-1.7-1.6-0.1-3.8 1.2-4.3-0.1-2.3 1.2-0.3 1-2.2 1.2-1.1 3-0.9 0.7-1.3 1.3-0.1 2.9 0.3 2.8-1.5 0.1-1.5 1-1.4 1.5-1.4 1.3-1.9 0.4-2.1 1.1-2.3 0.3-1.6 0.6-2.2-0.7-1.4-1.1-0.8-1.3-2.3 0.3-4.1-1.1-3.9 1.6-1.8 0.4-1.9 1.8-2.9 0.1 0 1-0.5 1.4-1.1 0.7-1.2-0.1-1.2-0.8-2.8 0-0.8 0.3-1.5-0.1-0.8-0.1-0.2-0.3-0.4-0.1-0.3 0.1-0.4 0.3-0.7 0.2-0.3-0.3-1.5-1.4-0.8-1.4-0.4-0.5-0.5 0.3-0.3 0.4-0.3 0.3-0.3-0.5-1.5 0.2-0.5 0.5-0.2 2.1-0.7 0.5 0 0.6 0.1 0.5 0.3 1 0.9 1.6 0.8 0.5 0.5 0.7 1 0.8 0.9 3.8 1 0.3 0.9 0 1.5 0.5 1 5.5 5.1 0.5 0.4 0.5 0.1 0.4 0 1.3-0.3 0.6 0 0.6 0.1 0.6 0.5 0.4 0.6 0.1 0.6 0.3 0.5 1.1 0.5 0.4 0.4 0.8 1.1 1 0.7 0.9-0.3 1.7-1.9 4.1-2.3 3.6-3 0.5-0.9 0.9-4.7 0.2-0.9 0.3-0.5 0.4-0.1 2 0.9 0.8 0.2 0.6-0.1 0.5-0.5 0.2-0.6 0.2-1.4 0.3-0.4 1.3-0.2 0.4-0.5 0-0.5-0.3-1.2 0-0.5 0.3-0.5 0.3-0.4 0.8-0.7 0.7 0.3 2.2 3.2 0.5 0.2 1.7 0.4 0.5-0.1 0.1-0.4-0.2-0.7-0.5-1.2 0-0.8 0.3-0.5 0.5-0.4 0.5-0.2 0.6-0.1 0.4 0.2 0.9 0.7 0.6 0.3 0.7-0.1 0.6-0.1 0.6-0.3 0.6-0.2 2.1 0.2 1.1-0.3 1.6-1 0.4-0.1 0.4 0.2 0.3 0.8 0.2 1.5 0.2 0.7 0.4 0.3 0.6 0 0.4 0.1 0.4 0.4 0.4 0.6 0.2 0.6 0.3 1.4 0.3 0.6 0.3 0.6 0.5 0.5 1.6 0.9 0.6 0.2 0.6-0.1 0.6-0.3 0.4-0.5 0.3-0.6 0.3-0.6 0.5-0.3 1 0.1 2.3 0.8 0.8-0.5 0.4-1.1 0-1.3-0.2-2.6 0.1-1.4 0.5-0.9 0.3-0.9 0.7-0.1 1.1 0.6 0.4 0.1 1.4 0 0.3 0.2 0.2 0.2 0.4 0.6 0.2 0 0.7-0.3 0.3-0.1 1.9-0.4 0.2 0.1 0.1 0.2 0 0.6 0.6 0.4 0.6 0.4 0.7 0 0.6-0.4 0.2-0.7 0.3-0.8 0.3-0.7 0.5-0.3 0.5-0.2 1-0.6 0.4 0.3 0.7 0.8 0.3 0.5 0.1 0.6 0.1 0.5 0.1 0.4 0.5 0.3 3 0 1.1 0.5 0.7 1 0.2 1.7-0.1 0.7-0.3 0.6-0.4 0.4-0.4 0.5-0.1 0.5 0 0.7 0.3 0.7 0.3 0.4 0.4 0.1 1.3 0 0.2 0.3-0.2 1.5 0.1 0.6 0.4 0.4 0.7 0.1 0.7-0.2 0.7-0.1 0.5 0.5 0.4 1.3 0.2 0.4 0.4 0.5 1.9 1.4 0.9 0.4 6.7 0.6 0.5 0.2 0.4 0.5 0.3 0.6 0.3 0.3 0.3 0.2 0.4 0 2.4-0.5 1.2-0.1 1 0.7 0.5 0.5 1.3 0.6 0.3 0.2-0.1 1-0.6 0.3-1.4-0.2-0.6 0.5-0.1 0.6 0.4 0.6 1.4 1.2 0.8-0.3 0.8-0.9 0.8-0.7 1.3-0.2 1.3 0.1 1.2-0.2 1-1.1 1-2.3 0.3-0.6 0.8-0.9 0.3-0.5 0.1-0.7-0.1-1.3 0-0.8 0.1-0.7 1-2.5 0.2-0.3 0.2-0.3 1.1-0.4 1.5-0.1 1.3 0.5 0.4 1.4 0 1.4 0.6 1.1 0.8 0.9 0.9 0.7 1.3 0.7 10.2 1.2 2.5-0.4 6.7-2.3 6.8-2.3 0.8-0.8 0.5-1.2 0.4-1.6 0.4-3.5 0.2-1.1 1.1-6.5 0.6-1.8 0.8-1.1 1-0.6 1.3-0.3-0.4-0.2 0.6 0 3.5-0.2 1.4-1.1 1.3 2.2 0.3 2.1 0.5 2.2 1.8 2.5 3-1.7 3.4 2.7-0.8 1.1-0.5 2.6 3.3 3.6-1.7 3.8 0.2 2.2 0.9 0.9 2.3-0.1 2.2 9.1 3.9 8.3 4.8 7.6 0.5 4.8-2.2 0.9-2.6-1.3-2.5 2-1.3 3.9-2.4 2.5-1.2 3.2 1 3-3.2-0.1-1 1.3 0.3 1.7 4.7 8.1-2.5 0.3-2.6 1.3 2.4 0.7 1.8 4.3 5.3 6.5 3.7 1 2.2-1.2 3 0.7 0.6 2.8-0.6 3.6 15.4 8.2 7.6 11.7z"
   id="KAZ3195"
   class="area"
   name="Aqtöbe" >
</path>
<path
    d="M480.4 35l0 0.1 3.2 14.2-2.9 1.3 1.5 2.1 2.9 1.3 2 3.5-6 2.7-2.6 1.8 0.5 3.6 1.3 4 1.6 0.3 1.7 2.4-0.5 4.3-2.2 2.5 1 3.5 3.1 0.6 0.8 4.8 0.1 4.4 1.4 2.6 2.3 2.2-2.3 1.6-5.3 0.8-1.4 2.8 0.3 1.5 0.8 1 0.7 1.9 0 1.9-0.3 3.1-1.9 2.1-0.8 6.3-0.1 6.7-0.4 9-2 2.3-1.3 3.7-1 5.3-3.8 4.1-4.7 1.6-1.7-0.2-0.4 2.4 4 2.7 1.3 2.7-0.5 4.2-0.5 1.5-0.3 1.5 0.7 0.8-0.6 0.8-1.1 1-1.2 1.7 1 1.4-0.2 2.4 4.2 7.5 0.4 6.9 3.1-0.2 2.2-3.3 2.9-0.5 2.4 1.7 0.5 2.4 0.9 0.8 2.4-0.1 1.7 2.5 2.3 1.8 8.8 2.9 7.1-1.2 2.6 2.2 0 3-1.1 2 1.1 1.8 2.5 2 3.1-1.8 3.3-1.3 6.4-0.9 4-1.2 1.8-1.4 0.8 0.5 1 1.3 2.5 1.8-1.5 3-2.5 2.6-7.2 2.2-1.4 0.7 0 1.3 0.3 0.8-0.3 0.5-0.2 0.4 0.5 1.1-0.2 2-5.8 7.4-15.9 14.8-2.2 3-2.8 1.1-1.2 3.7-2.8 0.9-8.4 7.7-4.9 0.7-3.2 1.8-2.3 2.8-5.2 1.1-11-1.7-8.1 1.4-2.8 6.8-2.9 0.1 0.1 1-0.2 2 1.1 2.6-2.9 0.9-5.2 2.8-0.2 3.8-5.8 5.4-7.6-11.7-15.4-8.2 0.6-3.6-0.6-2.8-3-0.7-2.2 1.2-3.7-1-5.3-6.5-1.8-4.3-2.4-0.7 2.6-1.3 2.5-0.3-4.7-8.1-0.3-1.7 1-1.3 3.2 0.1-1-3 1.2-3.2 2.4-2.5 1.3-3.9 2.5-2 2.6 1.3 2.2-0.9-0.5-4.8-4.8-7.6-3.9-8.3-2.2-9.1-2.3 0.1-0.9-0.9-0.2-2.2 1.7-3.8-3.3-3.6 0.5-2.6 0.8-1.1-3.4-2.7-3 1.7-1.8-2.5-0.5-2.2-0.3-2.1-1.3-2.2-1.4 1.1-3.5 0.2-0.6 0-1.3-0.6-0.7-0.7-0.6-1-1-3.1-0.6-1-0.9-0.2-1.1-0.7-0.9-0.4-0.3 0.1-0.6 0.2-0.3 0-0.4-0.1-0.8-0.5-0.6-0.1-1.7 0.1-0.5-0.1-1-0.3-0.5-0.1-0.8 0.1-0.3-0.1-0.3-0.2-0.5-0.6-0.8-0.6-0.3-0.3-0.4-0.8-0.1-0.5-0.1-0.4 0-1.2 0.1-0.5-0.4-0.1-9.9-0.2-0.3-0.1-0.1-0.3-0.1-0.7-0.3-0.2-2.6-0.5-0.6-0.3 0.1-0.8 0.3-0.5 1.2-0.6 0.5-0.4 0-0.3 0-0.7 0.2-0.2 0.4-0.4 0.3-0.3 0.1-0.3-0.7-0.8-4.3-1.1-2.5-1.9-0.9-0.3-0.2 0.4-0.3 0.6-0.6 0.3-0.7-0.1-0.6-0.5-1.1-2.6-0.2-0.6 0.1-0.7 0.3-0.9 4.9 0 3.6-3.9 1.9-1.6 1.9-0.8 1.4 0 1.4 0.3 1.3-0.1 1.2-1 1-1.6 0.5-0.4 2.3-1 0.5-0.4 1.2-1.4 0.5-0.4 1-0.6 0.8-0.8-1.9-2.7-0.2-0.7-0.1-1.6-0.2-0.7-0.2-0.4-0.3-0.2-2.2-0.8-0.4-0.4-0.1-0.6 0.1-1.9-0.1-0.8-0.1-0.7-0.1-0.2-0.3-0.1-1.2 0.2-0.4-0.1-0.3-0.2-0.3-0.8-0.4-0.2-0.2-0.3-0.1-0.3 0-0.4 0-0.5 0.6-1.6 1-0.7 1.2-0.3 1-0.5 0.4-0.5 0.5-1.2 0.5-0.5 4.2-3.9-2-2 1.9 0 0.9-0.3 0.8-0.6 0.8-0.7 0.9-0.1 0.8 0.3 0.8 0.5 0.7 0.3 0.8 0.1 0.7-0.1 0.7-0.3 1.2-1 0.6-0.1 0.7 0.3 0.9 0.8 1.4 1.5 0.8 0.3 0.8-0.5 0.4-0.4 0.5-0.1 1 0.1 2.5-0.3 0.9 0.3 1.6 1.3 0.9 0.2 1.9-0.8 0.9-0.6 0.5-1 0.5-2 0.1-0.9-0.2-1-0.6-1-0.8-0.5-5.3-1-1.7-0.8-1.5-1.4-1-1.4-0.5-0.2-2.3 1.3-0.8 0.1-0.9-0.2-2.4-1.9-0.9-0.4-2.3 0-1.1-0.2-1-1-0.5-0.9-0.2-1.1 0.1-1 0.4-1 1.1-1.6 0.2-0.5 0.1-0.5 0.1-1.3 0.4-0.4 0.7-0.2 0.6 0.2 0.5 0.4 0.5 0.9 0.6 0.9 0.7 0.5 0.8 0 0.6-0.4 1.2-1.4 0.7-0.5 1-0.5-0.7-2.8-0.3-0.5-0.3-0.2-2.8 0.1-0.7 0.2-1.1 1.5-0.8 0.2-3.5-0.9-0.4-0.3-0.2-0.2-0.3-0.7-0.1-0.3-1.3-0.4-3.4-0.2-0.6-0.8 0.6-1 2.5 0.9 0.8-0.8 0.1-0.5 0-0.5 0-0.5 0.2-0.5 0.4-0.2 0.9-0.2 0.2-0.4 0.3-1 0.6-0.7 0.7-0.7 0.5-0.7 0-0.9-0.6-0.5-0.8-0.4-0.7-0.4-0.5-0.8-0.2-0.2-0.5-0.1-1.6-0.1-0.5-0.1-0.2-0.4 0-0.5 0-0.5 0.2-0.4 0.4-0.6 0.5-0.4 1.2-0.2 0.8-0.1 1.1 0.3 0.2 0.2 0.3 0.7 0.3 0.5 0.4 0.4 0.5 0 0.4-0.8 0-0.7-0.1-0.7-0.6-1.6-0.2-0.8 1.4-0.1 0.6-0.4 0.5-0.7 0.4-0.6 0.7-0.1 1.9 0.3 0.4 0.3 0.7 1.6 0.4 0.3 1.8 0.4 0.1 1.3 0.2 0.4 0.4 0.2 0.5-0.1 0.2-0.4 0.2-0.6 0-0.8 2.4 0 0.3 0.3 0.3 0.2 0.3-0.1 0.6-0.7 0.3 0 0.4 0.1 0.3 0.2 0.2 0.8 0.1 0.6 0.1 0.4 0.5 0.3 0.9 0.3 2.7 0.1 0-2.5 0-0.2 0-0.8 10-0.4 0.5 0.1 0.3 0.4 0 0.9-1.1 0.8-0.3 0.5 0.1 0.9 0.4 0.7 1.2 0.6 0.5 0.6 0.2 0.4 0.3 0.3 0.3 0.2 0.4 0 0.4-0.2 0.1-0.2-0.3-1.3-0.1-0.4 0-0.3 0.3-0.5 1.1-1.1-0.5-0.8-0.1-0.2-0.3-1.4 0.7-1.1 1.2-0.7 1-0.3 2.1-0.2 1.4-0.5 0.4 0.1 1.1 0.5 0.7 0.1 2-0.6 2.4 0.3 0.7-0.4 0.4-0.7-0.1-0.6-0.2-0.6-0.1-0.8 0.3-0.6 0.8-0.3 1.5 0.1 2.8 0.6 0.9 0 0.7-0.3 1.3-1.1 0.6-0.3 1.7-0.1 4-1.8 0.8 0 0.8 0.4 2 1.6 0.7 0.2 0.3 0.1 0.3-0.5 0.7-0.4 0.9-0.1 0.8-0.4 0.4-1.1-0.8-1.1-0.3-0.7 0-0.3 0.2-0.1 0.2-0.3 0.2-0.2 0.5 0.5 0.3 0.1 0.3 0.1 0.3-0.1 0.2-0.1 0.4-0.5 0.2-0.2 0.3 0 1.1 0.3 0.6-0.2 1.2-0.6 0.8-0.1 0.5-0.3 0.4-0.3 0.3 0 0.7 0.3 2.4-0.3 0.3-0.1 0.5-0.7 0.3 0 0.5 0.2 0.3 0.1 0.6-0.2 1-0.7 0.4 0.3 1.5 1.3 0.7 0.5 0.9 0.1 1.6-0.8 1.5-1.3 1.6-0.8 1.6 0.7 1.9 2.6 0.4 0.4 0.3 0.2 0.4 0.2 0.4-0.1 0.2-0.1 0.3-0.3 0.1 0 0.8 0.3 0.2 0 0.7-1.4-0.7-4.5 0.5-0.9-0.1-0.9 0-1 0.4-0.5 3.1-1.4 0.7 0 1.4 0.4 0.5-0.2 0.2-0.9-0.3-1.5 0.1-0.6 0.7-0.2 2.4 0.3 3.4 1.2 0.7-0.1 0.7-0.7 0.6-1.3 0.7-1.1 0.8-0.5 1.8-0.7 0.5 0.3 0.2 2.8 0.4 0.7 3-1.1z"
    id="KAZ3196"
    class="area"
    name="Qostanay">
</path>
 <path d="M308.3 390.6l-0.5-12.9 0.2 0.3 0.4-0.2 0.3-0.7 0.1-0.9 0.1-1 0.5-1.7 0.3 0 0.3 0.7 0.5 0.5 0.7 0.1 0.3 1.1 0.3 0.8 0.6 0.5 0.3 1 0.7 0.2 0.4 0.3 0.6 0.4 0.4 0.2 0 0.4-0.2 0.8 0.3 1 0.2 0.6 0.4-0.2 0.3-0.1 0.5-0.3 0.3 0.5 0.2 0.8 0 1-0.4 1.3 0 0.7 0 0.8 0.3 1.2 0.2 1.3 0.5 1.2 0.3 0.9 0.3 0.4 0.1 1.3-0.3 0.7-0.1 0.5 0 0.8 0.3 1.2-0.2 0.9-3.7-2.5-5.8-3.9z m29.7-23.9l0.1 0.1 0.8 0.2 0.2 0.1-0.1 0.4-0.4 0.5-0.1 0.2 0.1 0.2 0.2-0.1 0.3-0.2 0.4-0.3 0.3-0.1 0.7 0 1 0.3 0.3 0.2 0.3 0.2 0.1 0.4 0 0.3 0 0.3-0.3 0.4-0.4 0-0.6-0.5-0.5 0.1-0.5 0.1-0.6 0-0.6-0.3-0.4-0.3-1-0.5-0.7-0.4-0.2 0-1.7-0.1-0.1 0.1-0.3 0.2-0.2 0.5-0.1 0.5-0.8-0.7-0.3-0.4-0.2-0.6 0.2-0.6 0.3-0.2 0.3-0.1 1.9 0.1 0.5-0.1 0.2-0.1 0.7-0.7 0.3 0 0.3 0.2 0.4 0.5 0.2 0.2z m4-0.2l0 0.4-0.1 0.2-0.3 0.1-0.2-0.1-0.5-0.5-0.2-0.1-0.8 0.1-0.2 0-0.1-0.2 0-0.3 0.3-0.3 0.9-0.2 0.3 0 0.3 0.1 0.3 0.2 0.1 0.2 0.2 0.4z m58.8-41.7l-4.2 3.3-0.4 1.6 7.3-1.2 6.3 4.3 3.4 0.5 6.1 2.9 3.3 0.3 1.3-0.4 0.8 0.7 29.2 11.8 2.1 0.3 5.9 5.3 5.2 2.5 34.8 8.3 4.1-0.3 2.5 0.2 0.6 3.5 0.4 3.4 2.6 2.1 1 3.6-1.9 3.2-1.6 8.2-0.1 4.1 2.3 2 3.2 2 1.9 2.3 0.3 26.2 2.4 1.8 1-0.2 1.5 0.6 1.4 1.1 0.3 1 2.3 2.9 5.7 4.3 0 2.2-2.2 0-1.7 2 0.7 1.3 0.2 2.3-1 2.7-2.5-1.5-0.1 3.5-1.8 3.1-0.6 3-2.1 2 0.4 3.3 0.7-2.8 0.9-0.4-0.1 1.2 1 0.1 0.2 2.4 1.7 1.4 0.6 0.4-1.1 1.2-12 5.9-11.8 7.9-5.2 4.6-2.2-0.8-3.7 1.8-7.6 7.5-4.2-0.7 0-1 0.2-0.4 0.5-0.2 0.3-0.6 0.1-1.8 1-16.5-7 3.8-0.4 0-4.8-9.8-2-4.3-1-0.8-5-3.2-2.5-2.6-5.2-6.9-0.8-0.7-0.8-0.1-0.9 0.3-7.2 4-2.4 1.4-0.9 0.2-4.7-0.4-13.9-1.3-3.7-0.3-7.4-0.7-2.3 0.4-15.6 2.5-11 2.1-1-0.5-1.8-2.1-4.2-4.7-5.6-6.5-3.1-3.6-5.4-5.9-1.5-2.4-0.2-0.8-0.2-1.7-0.1-0.8-0.5-1-0.6-0.7-6.6-4.4-7.6-5.1-9.7-6.4 0-1.5 0-1.3 0-3.9-0.1-1.8 0-1.9 0.2-1.5 0.3-2 0.2-1.7 0-1 0-1.3-0.3-1.5-0.2-1.7-0.3-2.4-0.4-1.2-0.3-0.5-0.5-0.3-0.8-0.2-0.7-0.1-0.5 0.1-1 0.4-2.4 0.1-0.5-0.2-0.4-0.3-0.3-0.3 0-0.4 0-0.4 0.1-1 0-0.9 0-0.4 0.2-0.4 0.2-0.2 0.2-0.2 0.3-0.4 0.2-0.4 0.1-0.4-0.1-0.5 0-0.4 0.1-0.3 0.3-0.2 0.6-0.1 0-0.8-0.1-0.3-0.3-0.2 0.1-0.3 0.3-0.1 0.3-0.3-0.1-0.3 0.1-0.3 0.3-0.1 0.3 0.3 0.3-0.1-0.1-0.5-0.2-0.4-0.9-0.5 0.3-0.3 0.2-0.4 0.4-0.2 0.3 0.1 0.2 0.3 0.8-0.2 0.2-0.2 0.5 0 0.5 0.1 0.6 0.1 0.5 0.3 0.4 0.3 1 0.3 0.5 0 0.8-0.3 0.4 0 0.2 0.3 0.8-0.1 0.8 0.2 0.2 0.1 0.7-0.1 0.2 0 0.2 0.2 0.5 0.7 0.2 0.2 0.2 0 0.3 0 0.5-0.3 0.3 0 0.3 0 0.3 0.2 0.8 0.5 0.2 0.1 0.2 0.1 0.5-0.2 0.4-0.3 0.3-0.5 0.6-1.8 0.9-1.3 1.1-0.8 2.4-1 0.5-0.3 0.4-0.4 0.2-0.2 1-2.2 0.2-0.3 1-0.9 0.3-0.1 0.6 0 1.6-0.4 0.5 0 0.8-0.7 2.2-1.3 1.1-0.9 0.3-0.2 0.4 0 0.9 0.3 0.4 0 0.3-0.1 0.3-0.2 0.3-0.3 0.2-0.4 0.1-0.6 0.2-0.4 0.3-0.4 0.2-0.4 0.2-0.8 0.2-0.4 0.1-0.3 0.1-0.5 0.3-0.5 0-0.3 0-0.6-0.1-0.7-0.1-0.5-0.2-0.8-0.2-0.3-0.2-0.1-0.7-0.2-0.4 0-0.3 0.1-1 0.5-0.4 0-0.4-0.1-1.1-0.6-2.6-0.3-0.7 0-0.4 0-0.8-0.3-0.7-0.4-0.3-0.3-1-1.6-0.7-0.8-0.1-0.2-0.2-0.3 0-0.3 0-0.3 0.2-0.7 0.2-1.2 0.4-1.2 0.1-0.6 0-0.7 0-0.6-0.2-0.3-0.2-0.1-1.1-0.3-0.2 0-0.4 0.3-0.1-0.1-0.6-0.5-0.7-0.2-0.7 0-0.9-0.4-0.3 0-0.7 0.1 0.3 1 0.2 0.4 0.2 0.3 0.4 0.3 1.3 0.6 2.7 1.8 0.1 0.2 0 0.3-0.3 0.2-0.9 0.5-0.2 0.2-0.7 0.9-0.4 0.3-0.3 0.2-1.9 0.6-0.4 0-0.4-0.1-0.3-0.2-1.5-1.6-0.1 0.4-0.3 0.9-0.1 0.4-0.7 1.8-0.3 1.1-0.5-2.7-1.1-3.4-0.2-0.5-0.3-0.4-0.3-0.4-0.4-0.1-0.3-0.1-0.3-0.1-0.7 0.2-0.6 0.4-0.3 0.2-0.7 0.8-0.9 0.6-1.2 1.1-0.4 0.2-0.9 0.2-0.7 0.7-0.2 0.5-0.2 0.5-0.1 1.2-0.1 1.3 0.1 0.6 0.1 0.6 0.3 0.4 1.3 0.8 0.5 0.9 0.6 0.7 0.6 0.1 5.3-1.8 0.5 0 0.4 0.2 1.2 1.8 1 0.9 1.1 0.6 1.2 0.4 1.1-1.5 0.2-0.1 1.1-0.3 0.2-0.1 0.2-0.3 0.3-0.7 0.1-0.4 0.9 0.4 0.2 0.3 0 0.2 0 0.7 0.1 0.8 0.2 0.3 0.2 0.4 0.3 0.8 0.6 0.9 0.4 0.4 0.1 0.4 0 1.9 0 0.5-0.2 0.5-0.2 0.4-0.3 0.4-2.3 2.3-0.3 0.3-0.4 0.2-0.5 0.1-0.4 0-1.7-0.5-2.6 0-0.4-0.1-1.4-0.6-0.5-0.1-4.2 0.2-0.5-0.2-1.3-1-0.5-0.2-0.6-0.1-0.6 0.1-0.6 0.2-2.3 1.6-1 0.4-1.9 0.3-0.5 0-0.4-0.1-0.3-0.3 0.2-0.4 0.6-0.5 0.4-0.4 0.2-0.5 0-0.6 0-0.6-0.4-1.8 0-1.7 0-0.4-0.3-0.6-0.3-0.6-0.6-0.6-0.3-0.2-0.2-0.1-1.4-0.1-1.9 0.3-0.2 0-0.2-0.1-0.6-0.6-0.1-0.1-0.5 0-0.3 0.2-0.2 0.3 0.1 0.6 0.5 0.7 0.7 1.4 0.7 1.2 1.1 1.3 0.8 1.1 0.6 0.9 0.4 0.9 0.3 0.5 0.1 0.6-0.2 1.1-0.5 1.3-0.7 2.1-0.4 1.2-0.3 0.9-0.4 0.9-0.1 0.8 0 0.6 0.3 0.7 0 0.6-0.4 0.4-0.6 0-0.6-0.1-0.7-0.2-0.5 0.3-0.5 0.7-0.7 0.8-0.4 0.6-0.4 0.6-0.4 0.2 0.1-1.5-0.3-0.5-0.5-0.4-0.4-0.1-0.5 0.2-0.3 0.5-0.2 0.6 0 0.4 0.2 0.6 0.1 0.5-0.1 0.2-0.3-0.1-0.3-0.3-0.4-0.5-0.6-0.4-0.4-0.5-0.3-0.5-0.2-0.1-0.2 0-0.2-0.1-0.2-0.5 0-0.7 0.6-2.6 0.9-1.9 0.4-0.5 0.8-0.5 0.2-0.2 0.3-0.6-0.1-0.5-0.3-0.6-0.3-0.4-0.4-0.4-0.4 0-0.5 0.1-0.4 0.3-1.7 1.5-0.5 0.1-1-0.1-1.1 0.1 0.9-3.8 13.6-18.2 6.1-6.4 6.1-4.5 5.9-1.4 0.7-4.3 2.4-2.4 5.6 0.4 6.1-9.4 2.3-6 5.3-7.5 6-1.5 7 0 4.6 7.4 3 1 3.6 3.6 3.7 5.5-0.5 1.6 2.3 0.7 2.3 0.3 2.8 1.4 2.2-0.1z m14.7 57.3l1.4-0.2 1.4-0.4 1.3-0.5 1.2-0.6 1.2-0.7 1.1-0.8 1-1 0.9-1 0.9-1.1 0.7-1.2 0.6-1.3 0.5-1.3 0.3-1.4 0.2-1.4 0.1-1.5-0.1-1.5-0.2-1.4-0.3-1.4-0.5-1.4-0.6-1.2-0.7-1.2-0.9-1.2-0.9-1-1-0.9-1.1-0.9-1.2-0.7-1.2-0.6-1.3-0.5-1.4-0.4-1.4-0.2-1.5-0.1-1.4 0.1-1.4 0.2-1.4 0.4-1.3 0.5-1.2 0.6-1.2 0.7-1.1 0.9-1 0.9-0.9 1-0.9 1.2-0.7 1.2-0.6 1.2-0.5 1.4-0.3 1.4-0.2 1.4-0.1 1.5 0.1 1.5 0.2 1.4 0.3 1.4 0.5 1.3 0.6 1.3 0.7 1.2 0.9 1.1 0.9 1 1 1 1.1 0.8 1.2 0.7 1.2 0.6 1.3 0.5 1.4 0.4 1.4 0.2 1.4 0.1 1.5-0.1z"
      id="KAZ3197"
      class="area"
      name="Qyzylorda">
 </path>
 <path d="M82.7 359.3l-0.4 0.2-0.6-0.5-0.4-0.8-1.1-3.2 0-0.7 0.7 0 1 0.7 0.5 0.4 0.3 0.5 0.4 0.9 0 0.9-0.4 1.6z m162.5 4.7l-2.7-1.3-1.2 0-1.9-0.7-2.5 0.2-1.4-1-0.9-1.6-2.4 0.3-2.7-1.3-0.1-3.4-2-2-1.7 1.1-4.9-4.4-5.6 4.8-8.4 0.4-19.1 4-0.8 0.7-1.4-0.1-2 0.6-3.9 5.3-2.3 2.3 1.5 1.8-5.4 3.4-12.1 3-4.3-1 0.3-0.4 0.2-0.2 0.7-0.2 0.2-0.2 0.8-1.2 0.3-0.6 0.5-1.4 0.4-0.7 0.7-0.7 0.2-0.3 0.1-0.3 0.2-0.8 0.2-0.4 0.5-0.9 0.1-0.6-0.1-0.6-0.1-0.4 0.1-0.4 0.6-0.8 0.2-0.5 0.1-0.6 0.2-2.4 0.8-3.2 0-2.4-0.7-1.9-1.1-1.4-1.3-1.3 0.5 0.1 0.8 0.6 0.4 0.3 0-0.3-0.4-0.3-0.2-0.6 0-0.6 0.1-0.7-0.4 0.2-0.6 0.6-0.5 0.4-0.5-0.2-0.1-0.7 0.4-1 0.7-1.5 0 0.7 0.4 0.3 0.4 0.1 0.4-0.3 0.2-0.6 0.1-1.3 0.2-0.6 0.2 0.7 0.2-0.1 0.2-0.6 0.2-0.5 0.2 0 0.6 0.1 0.2-0.1 0.4-0.2 0.1-0.5 0.1-1.4-0.5-0.8-0.7-0.4-0.8-0.1-0.5-0.2-0.1-0.5 0-1.1-0.4-2.5-0.5-1-0.1-0.4-0.2-0.2-1.1 0.1-0.4 0-0.4-0.5-0.9-1.5-0.4-0.3-1.1 0.1-2.3 0.4-1.3-0.2-2.8 0-0.6-0.2-0.4-0.2-0.9-1-0.4-0.2-1.6-0.2-0.4 0-0.3 0.4-0.1 0.4 0 0.9-0.1 0.3-1.1 1.5-0.4 0.3-2.3 0.9-0.7 0-0.8-0.6-0.3 0.1-0.2 0.3 0.1 0.5 0.1 0.1 0.7 0.2 0.2 0.1 0.3 0.6 0.1 0.4 0.1 0.4-0.2 0.1-3.1-0.2-0.6-0.3-0.4-0.3 0-0.3-0.1-0.5-0.1 0.1-0.3-0.3-0.8-0.8-0.2-0.2-0.2-0.2-0.1-0.4 0.2-0.2 0.2-0.3 0.2-0.3 0-0.4-0.5-0.2-0.5 0.7-0.5 1.3-0.4 0.2-0.8 0-0.8-0.2-0.6-0.3 0.8-1.1 0.2-0.2-0.5-0.2-0.6 0.3-1 0.7-0.6 0-0.5-0.3-0.5-0.4-0.4-0.5-0.9-0.7-0.3-0.6 0.5-1.5-0.1-0.8-0.3-0.5-0.6-0.1-0.5 0.4-0.2 0.7-0.2 0.7-0.2 0.7-0.5 0.1-0.5-0.7-0.6-1.2-0.5-0.5-0.6-0.3-1.5-0.3-1.4-0.5-3.1-0.7-1-0.6-0.7 0.1-1.1 0.8-0.9 0.5-3.3 0.8-0.4 0.2-0.7 1-0.5 0.2-0.3-0.1-0.6-0.5-0.2-0.1-0.3 0.1-0.1 0.3-0.1 0.2 0.1 0.1-0.1 0.4-2 3.3-0.4 0.4-0.2-0.6 0.1-0.5 0.4-0.7 0.1-0.4-0.1-0.3-0.3 0.2-0.9 1-0.6 0.3-0.7 0.2-0.5-0.2-0.3-0.1-0.2 0.7 0 1.7-0.2 0.6-0.4 0.5-0.4 0.3-0.4-0.2 0.4-0.6 0.3-0.5 0-0.4-0.6-0.2-0.8 0.3-0.2 0.1-0.3 0.3-0.2-0.1-0.2-0.2-0.8-0.7-0.2-0.1-0.4-0.1-0.3 0.5-0.8 2.3-0.4 0.4 0.1-0.4 0.1-1.3-0.4 0.3-0.1 0.4-0.2 0.5-0.2 0.3-0.1 0.1-0.5 0-0.2 0.1-0.3 0.3-1 2-0.5 0.6-0.5-0.1 0-0.3 0.2-0.5 0.1-0.3-0.3-0.2-0.3 0.1-0.8 0.5-2.1 2.3-0.7 1.2-0.4 0.5-0.5 0.3-0.9-0.1-0.4 0.1-0.2 0.2-0.4 0.5-0.2 0.3-0.9 0.3-0.3 0.6-0.3 0-0.7-0.2-0.3 0.3-0.1 0.7-0.1 0.4-0.7-0.2-0.3-0.5-0.2-0.2-0.2 0.1 0 0.8-0.1 0.3-0.2-0.1-0.5-0.7-0.4-0.2-0.2 0-0.1 0.3 0.1 0.9 0 0.3-1.6-2.1-0.4-0.2-0.1 0.7 0.2 1.6-0.5-0.3-0.2 0.2-0.2 0.4-0.3 0.4-0.2-0.8-0.3-0.5-1.4-0.6-0.5-0.3-0.2-0.5 0 0.4 0 0.6 0.4 0.4 0.2 0.9 0.2 0.4-0.3 0-0.8-0.4 0-0.3 0.1-0.3 0-0.2-0.1-0.2-0.5-0.4-0.2-0.2-0.2 0.2 0 0.3-0.8-0.1-0.9-0.3-0.7-0.6-0.4-0.7 0.1 0.9 1.6 1.9 0.4 1.1-0.5-0.2-0.9 0-0.1 0-0.3-0.4-0.2-0.6-0.3-0.4-0.5-0.1 0 0.3 0.4 0.4 0.1 0.7 0.1 0.7 0.6 0.4 1 0.9 0.1 0.4 0 0.3 0 0.4-0.1 0.4-1.1-0.8-0.4-0.4-0.4-0.5-0.3-0.6-0.3-0.4-0.4-0.2-0.7 0 0.5 0.4 0.2 0.4 0 0.5 0.1 0.3 0.9 1-0.3 0.3-0.4-0.3-1.9-0.6-0.3 0-0.1 0.2 0.1 0.3 0.1 0.3 0.3 0.1 0.3 0 0.4 0.3 0.1 0.7 0.1 0.6 0 0.6-4.7-2.8-1.8-1.4-1-1-0.5-0.3-0.7 0-0.6 0.1-0.6 0-1.5-1.2-0.6-0.8-0.7-0.5-1-0.3-2.2 0-0.9-0.4 0.6-0.8-0.4-0.3-0.1-0.5-0.1-0.5-0.2-0.4-0.9-0.5-0.5-0.2-0.4-0.1 0.6-0.8 0.6-1.7 1.3-1.1 1.5-0.3 1.4 0.5 0.5 0.4 0.4 0.6 0.6 1.4 0.6 0.2 3.8-0.7 0.7-0.6 1.4-1.7-7.5-11.9-3.7-9.7-0.3-0.8-0.2-0.6-0.4-0.3-0.9-0.1-0.9-0.3-0.6-0.6-1.2-1.7-4.6-8-1.5-1.3-1.7-0.8-9.6 0.2-5.2-2.5-0.6-0.1-0.4 0.3-0.2 0.6 0 2.2-0.1 1.7-0.2 0.7-0.4 0.1-4.5-3.2-0.8-0.8-0.5-0.6-0.1-0.4 0.2-0.4 0.3-0.7 0.5-0.5 0-0.3-0.1-0.2-0.8-1.4-1.7-2.1-0.2-0.5 0.3-0.3 2-1.2 1-0.9 0.3-0.7-0.4-0.5-1.4-0.1-0.3-0.5 0-0.6 0.1-0.7 0.2-0.6-0.2-0.7-0.2-0.3-0.5-0.5-0.1-0.4 0.1-0.2 0.4-0.4 0.4-0.7 43.8 6.6 12.8 4.5 0.7-2.8 11-1 20-13.9 1.8-0.5 1.2-1.1 1.2-0.6 1.2-0.1 2.4-3.2 2.7-2.2 2.5-0.3 2.7-1 9.4 1.2 1.8 0.6 0.3 1.2-0.7 2.9 3.8 1.5 2 0.4 2.2 0.1 0.9-1.2 8.5 2.8 1.6-0.7 0-1.6 0.8-4.4 3.6-5.7-0.2-4.4 3.7-4.6 1.4 0.4 8.7 0 2.6-0.8 0.8-0.5-0.3-1.1 0.7-0.9 4.7-4.6 1.7 1.6 2.8 1.5 0.2 1.1 0.9 0.6 1.8-2.6 1.9 4.5 0.7 4.2-0.1 3.5 0.3 1.8-0.5 1.3 9.1 2.1 1.2-3.3 1.1-1.7 1-0.7 1.3 0.2 0.8 1.4 1.1 0.9 2.2 0.2 1.2 4.1-0.1 2-0.6 0.8-0.6 4.6 1.1 4 0.9 4.4-0.1 4 2.4 2.9 2.2 9.1 0.3 4.2-1.8 12.6-0.1 5.2 2 3.1 2.2 5.4 3 4.5 5 4.7 19 7.2 0.6 3.7 2 3 0.5 1.8 0.5 2.2 1.3 2.5z"
      id="KAZ3198"
      class="area"
      name="Atyrau">
 </path>
 <path d="M198.1 200.4l-1.8 2.9-0.4 1.9-1.6 1.8 1.1 3.9-0.3 4.1 1.3 2.3 1.1 0.8 0.7 1.4-0.6 2.2-0.3 1.6-1.1 2.3-0.4 2.1-1.3 1.9-1.5 1.4-1 1.4-0.1 1.5-2.8 1.5-2.9-0.3-1.3 0.1-0.7 1.3-3 0.9-1.2 1.1-1 2.2-1.2 0.3 0.1 2.3-1.2 4.3 0.1 3.8-4.7 4.6-0.7 0.9 0.3 1.1-0.8 0.5-2.6 0.8-8.7 0-1.4-0.4-3.7 4.6 0.2 4.4-3.6 5.7-0.8 4.4 0 1.6-1.6 0.7-8.5-2.8-0.9 1.2-2.2-0.1-2-0.4-3.8-1.5 0.7-2.9-0.3-1.2-1.8-0.6-9.4-1.2-2.7 1-2.5 0.3-2.7 2.2-2.4 3.2-1.2 0.1-1.2 0.6-1.2 1.1-1.8 0.5-20 13.9-11 1-0.7 2.8-12.8-4.5-43.8-6.6 0-0.4-0.4-0.5-0.5-0.4-2.4-0.6-12.2-4.3 0-0.1 3.4-9.5 3.3-9.1 0.6-0.8 0.9-0.6 1.8-1 0.5-0.5 0.5-0.4 1.2-1.6 1-1.9 0.5-2-0.3-1.9-1.2-1.6-3.6-2.8-1.4-0.5 1.6-9.2 1.5-9.2 0.5-1.5 0.9-0.9 5.4-2.4 1.6-1.7 1.6-2 0.5-1.1-0.1-1.4-1.3-1.8-0.2-1.1 0.3-0.5 0.9-0.9 0.2-0.6-0.1-0.6-0.4-0.4-0.2-0.4 0.3-0.8 0.4-0.3 1.7-0.7 0.3-0.5 0.8-1.8 0.8-1.1 1-1 1.1-0.6 1.1 0 0.6 0.4 1.6 2.1 1.1 0.7 0.3 0.3 0.3 0.5 0.2 0.4 0.2 0.3 0.5 0.2 0.3 0.2 1.1 1.3 0.5 0.7 0.9 0.9 1 1.5 1 0.9 0.2 0.4 0.1 0.5 0.2 0.6 0.3 0.4 1.2 1 0.5 1 0.2 1.1 0.2 1.1 0.3 1.1 0.2 0.3 0.2 0.8 0.2 0.3 0.3 0.3 1 0.8 0.4 0.9 0.2 0.9 0.3 0.5 0.9 0.1 0.7-0.1 0.2 0.1 1.1 1.1 1.5 0.8 0.3 0.1 0.3-0.2 0.5-0.8 0.4-0.3 5-1.9 2.4-1.5 1.9-2.2 0.4-0.7 0.2-0.4 0-0.4-0.3-1.5-0.2-0.6-0.3-0.4-1.7-0.6-0.1-0.9 0.2-1.4-0.4-1.5-1-2-0.7-2.7-0.7-5.5 0.1-2.7-0.1-1.2-0.6-0.8-1.2-0.3-0.6-0.3-0.2-0.8 0.4-0.5 0.6 0.1 3.2 1.9 1.2 0.3 1-0.2 4.5-3.4 2.2-2.9 1-0.9 3.4-0.8 2.1-0.9 1-0.9 0.3-1.3-0.4-1.2-0.8-1-0.6-1 0.3-1.1 0.6-1 0.2-0.6 0.2-1.3 0.2-0.7 0.3-0.6 0.4-0.4 0.5-0.2 2 0.6 5.8 0 0.4-0.3 1.2-1.6 3.5-3.1 1-0.5 4.4-0.9 2.9-1.5 0.4-0.3 0.2-0.4-0.1-0.5-0.2-0.7 0-0.8 0.2-0.3 0.4-0.3 0.3-0.3-0.3-0.4-0.1-0.3 0.2-0.2 0.3-0.1 1.5-0.1 0.4-0.1 0.3-0.4 0.2-0.7 0.6-0.1 0.4-0.1 0.2-0.4 0.1-0.9-0.2-2.3 0.1-0.6 0.4-0.4 0.5-0.1 0.3-0.3 0-1 0.1-0.9 0.5 0 0.9 0.8 1.2 0 0.2 0.2-0.5 0.6-0.4 0.7 0.3 0.4 0.6 0 0.6 0 1.1-0.5 0.6-0.7 0.1-1.1-1.1-3.3-0.1-1.3 0.6-0.7 1.3 0.3 0.4 0.3 0.5 0.4 0.4 0.5 0.2 0.6 0.4 0.8 0.6 0.3 6 0.4 0.5-0.2 0.6-0.3 0.5-0.2 0.4 0.3 0.6 1.1 0.3 0.3 0.5 0.2 1.1 0.1 0.4 0.2 0.3 0.8 0 0.9-0.2 0.6-0.4 0.4-0.5 0.3-2.3 0.4-0.2 0.3 0.3 0.6 0.4 0.6 0.2 0.5 0.8 0.8 1.8 0.2 2-0.3 1.3-0.7 0.5-0.6 0.3-0.6 0.3-0.4 0.6 0 0.7 0.2 0.2 0.4 0.1 0.6 0 0.9 0.6 1.1 1.1-0.1 1.2-0.7 1-0.8 0-1.4-0.4-1.3-0.1-1.2 1.4-1.6 0.7-1.1 0.5-0.5 0.7-0.2 0.7 0 0.6 0.3 0.7 0.4 0.6 0.2 0.8 0.1 0.7 0 0.6-0.2 0.5-0.5 0.6-1.2 0.3-0.6 0.6-0.3 1.4 0.1 0.7-0.1 0.5-0.4 0.3-1.2 0.4-0.4 0.7 0.4 0.4 1.4 0.3 1.5 0.3 1.2 1.7 3.2 0.6 2.5 0.2 0.4 0.3 0.5 0.4 0.6 0.4 0.4 0.5 0.3 0.2 0.1 0.5-0.4 2.2 0.2 0.1 0.3 0.3-0.2 0.3-0.3 0.2-0.4 0.2-0.2 0.3-0.1 0.6-0.1 0.2-0.1 0.1-0.3 0.2-0.3 0.3-0.1 0.3 0.1 0.5 0.6 0.2 0.1 1.4-0.1 0.5 0.2-0.3 0.7 0.5 0.1 0.6 0.4 0.4 0.1 0.3-0.1 0.4-0.3 0.3-0.4 0.3-0.3 0.9-0.4 3 0.1-0.2-0.7 0.1-0.3 0.3 0 0.4 0 0.2 0 0.2 0.4 0.1 0.2 0.3 0.1 0.4-0.2 1.8 0.3 0.4-0.1 0.6-0.3 0.5 0.4 0.1 0 0.9 0.3 0.3 0.4 0.5 0.9 0.3 0.4 2.5 1 1 0.8 0.3 0.3 0.2 0.6-0.2 0.4-0.8 0.4 0.4 0.5 0 0.7-0.1 0.7 0.1 0.6 0.9 0.8 0.3 0.5 0.2 0.7 0.6 0.7 4.5 1.4 1.2-0.3 0.7 0.2 0.9 0.8 0.5 0.5 0.6 1.3 0.5 0.4 1.3 0.2 0.5 0.3 0.2 0.6 0.2 1.5 0.2 0.5 0.2 0.4 0.1 0.4-0.1 0.6 0.8 1 0.4 0.4 1 0.6 0.3 0.4 0.3 0.6 0.4 0.5 0.6 0.3 2 0.4 0.2 0.2 0.5 0.4 0.2 0.2 1.1 0.3 0.4 0.1 0.1 0.4 0.1 0.3-0.1 0.4-0.1 0.4-1.4 1.8-0.2 0.8-0.1 1.7-0.1 0.8-0.5 1.7-0.2 0.8 0.1 0.7 0.4 0.8 0.9 1.2 0.5 0.5 0.6 0.4 0.5 0.1 1.1-0.3z"
      id="KAZ3201"
      class="area"
      name="West Kazakhstan">
 </path>
 <path d="M672.7 120.3l0.7 0.8 0.7 3.2 0.6 22.4-1.2 1.3-2.5 1.8-1.6 4.2 0 3.9 3-0.6 1.7 0.1 0.6 1.4 2.8 1 2.6 1.5-2 1.3-2.2 0.4-3.7 1.5-2.4 1.8-0.6 1.9-1.1 2.1-1.6 2-4.6-0.7-4.5 0.8-1.3-0.2-0.5 1.3 0.4 1 1.3 2.1 0.6 1.5-0.1 0.8 1.4-0.6 1.3-1.5 2.3 0.8 1.1 0.9-1.3 1.6-2.4 1.9-4.3 1.4-1.4 0.8 0.4 1.3-2.2 1.3-1.3 0.5-0.7 1-4.1-1-1.9 2.4-0.1 1.2-1.1 1.7-2 0.6-1 0-1 0.7-1.7 0.9-0.2 0.9 0.2 0.5-0.7 0.8 0.1 1.5 0.9 0.6-1.3 1.3-3-1.2-0.9 1.2-1.2 0.4-0.4 4-6.5-0.6-2.6 0.6-1.1 0.7-0.1-1.5 0.8-1.1 0.4-1.8 0.4-2.6-0.7-0.5 1.2-2.2-2.7-2.6-1.1 0-0.7-1-1.3 0.2-0.7-0.8-0.9-0.1-0.3 0.9-2.7 1.3-2.3 4.1-1.4 0.6-1 0.9-2.7 0.6-0.7 0.7 0.2 1.2-1 0.9-2.5 1.4-1.4 0.2-1 0.6-1 3.8-0.4 3.7-0.8-0.9-1.2-1.1-3.3 1.3-1.5 6.2-7.9 3.3-1-3 1.9-3.2-1.4-1.3-0.6-1.5-1.6-0.1-6.1 1.7-2.4 0.3-2-0.6 0.3-2.1-0.9-0.4-1.7-2.4-1.6 0.4-0.4-1.3-1.8 0.4-1.2 2.5-1.4 2.3-1.3 0-0.7-0.6 0.4 2.2-1.4 1-2.8 0.8-8.2-2.7 1.4-3.6 1.2-4.5 0.4-3.3 0.6-1.7 0.5-2.4 0.2-4.2-5.3-2.1-2.7 0.9-2.5 1.4-4.5 3-8.6 0.1 1 1.5 0.6 2.7-1.8 1.4-4 1.2-6.4 0.9-3.3 1.3-3.1 1.8-2.5-2-1.1-1.8 1.1-2 0-3-2.6-2.2-7.1 1.2-8.8-2.9-2.3-1.8-1.7-2.5-2.4 0.1-0.9-0.8-0.5-2.4-2.4-1.7-2.9 0.5-2.2 3.3-3.1 0.2-0.4-6.9-4.2-7.5 0.2-2.4-1-1.4 1.2-1.7 1.1-1 0.6-0.8-0.7-0.8 0.3-1.5 0.5-1.5 0.5-4.2-1.3-2.7-4-2.7 0.4-2.4 1.7 0.2 4.7-1.6 3.8-4.1 1-5.3 1.3-3.7 2-2.3 0.4-9 4.4 1.4 1.9 2.9 2.4-0.8 5.6-0.2 1.3 2.8 2.9 0.1 8.2 1.6 2.5-0.6 5-0.5 0.3-5.9 2.6-0.5 3.1 0.9 5.7 3.6 2.3 0.8 0.5-1.2 0-1.1 1.8-0.5 2.5-2.9-1.8-2.4-0.1-1.9 1.6-0.1 4.9-2.6 1.2 0.1 0.7-1.4 0.9-0.7 0.2-1.1 1-1.6 2.1-1.1 1.7-1.6 3-1.4-0.2-0.4-0.7-6.2 1.8-1.7 0.8-4.4-1.4-2.4-1.1-3-2.5-1.1-1.7-2-1.6-3.3 1.7-1.1 0.6-0.8 0.8-1 1.6-0.6-0.6-0.5-0.4-1.5 2.6-0.5 1.4-0.4-0.4-0.7-0.5-2.1 1.1 0 0.7-0.5 1.6-0.4 0.8 0.3 0.2 0.7 2 0.2 1.4-1 1.2-1.1 2.4 2 0.9 1.3 0.9 0.5 0.8 3.1 1.5-0.1 0.2-1.4-1.2-1.2 0.3-1.1 0.8-1.3 4-2.5 4.2-0.1 1.5 1 0.8 1.2 0.9 3.3 0.1 2.8 0.8-0.7 1.3 0.3 2.5 0 1 0.7-0.3 1.5-1 1.5-0.8 1.7 1.5 0.1 3.2-0.2 2.4 1.7 1.5 2.6 1.7 0.9 0.5-2.8 1.9-0.7 0.9-2.9 3.3-0.6 6.2-0.1 0.7 0.7 0.2 0.5 0 2.3 3.1 0.7 0.8 0.6 1.4 0.2 1.3-0.4 5.9-3.3 1.7 3 2.5 2.7 1.1 1.8-0.8 1.4-0.2 4.1-1.3 2.1 1.4 2.8 3.3 1.2 7.7 0.2 5-3.5 2-0.5 2.6 0.5 3-0.9 1.3-0.1 0.8-1 1.4 1.9 0 2.1 1.1 2.5 0.5 4.9 2.4 0.2 10.2 3.6 4.4 3.4 7.6 0.6z m-59.7 62.2l1.2-1.7 0.6-2.3 0.2-2.5-0.7-1.8-0.8-0.4-1.1-1.7-1.9-1.5-1.1-0.3-1.6 0.7-0.8 0.8-0.7 1.3-0.2 1.5 0.2 1.6 0.9 1.5 1.2 1.5 1.1 1.5 1 1.8 1.1 0.7 1.4-0.7z"
      id="KAZ3202"
      class="area"
      name="Aqmola">
 </path>
 <path d="M666.5 172.3l7.8 3 0.7 1.7 0.5 2 0.3 1.8-0.7 2.1-0.8 7.1-1.2 0.6 0.3 2.8-0.6 2.6 2.7 2.6 5.8-0.8 1.9-0.6 1.2-1 0.8 0.9 1.6 0.4 2.8 1.2-0.3 3.1 1.6 1.9 2.3-2.1 2.5 2.5 0.9 0.1 1.3 1.6 0.8 1.7-0.6 0.6 1.7 2.3 2 1.6-2.6 2-2.5 1.2-0.5 1-1 1.1 1.5 2.5 2.1 0.8 5.8-3.6 2.5-2 6.8 0 1.4-1.8 2 0.6 9.3-1.7 3 1.3 1.7-2.9 1.1-0.1 1.5-0.8 2.7-0.2 2.9 1.1 0.6-4.5 0.9-4 5.3-5.6 3.4 0.2 2.1 2.2 4.8 1.6 5.4 2.7 1.1 2.8-0.3 3.7 0.4 2.3 1.5 1.1-1.6 2.9-5.4 5.3-2.9 1.4-2.1 0.6-1.2 1.3-0.2 0.9 0.2 1.3 0.1 1.6-0.1 1.9-0.6 3.9-4.8 3.8-5 2-3.4 5.3 1.5 2.5 2.8 1.6 2.4 2.6 0.1 1.5 3.4 3-1.7 1.6-2.3 1 0.1 4.4 2.1 2.2 5.4-0.7 4.1 0.3 0.3 3.8-0.5 1.9-0.2 1.8-2.2 2.5-3.2 2-2.5 0.2-0.8 1.3-0.4 1.6-1.1 0.9 0.6 1.2 1.9 1.1 0.6 1.4 2.5 0.2 2.2 1-2.4 1 0.5 2.7 2.9 1.7 2.9 1.1-3.3 1.9-1 3.2-1.6 2.6-2.3 8.6 0.6 0.8 0.6 1.8 1 4.5-4.4 1.2 0.1 1.4-0.5 2-1 1.4-1.2 0.6 1.4 0.8 3.1 3.4 5 1.4 1.3-2.7 6.4-0.4 0.8 12.9-0.3 5-2.1 1-0.5 0.3-0.7-0.1-1.8 0.7-2.1 0.2-0.5 0.2-0.5 0.4-0.3 0.5-0.3 0.5-0.3 0.5-1.7 0.4-0.2 0-0.4-0.3 0-0.2 0.1-0.2-0.1-0.3-0.8-1.3-0.9-0.9-1.1-0.4-1.2 0.2-0.6 0.2-0.3 0-0.3 0-0.2-0.1-1.2-1.5-0.6-0.3-0.3 0.2 0.2 1.1 0.8 1.3 1 1.1 0.7 0.9-0.7-0.3-1.4-0.8-2.3-0.9-0.6-0.5-0.4-0.7 0.3-0.2 0.1-0.3-0.1-0.4-0.1-0.3-0.5 0.5-0.5 0.2-0.5-0.1-1.3-0.3-0.3 0-1.2 0.5-0.2 0.2-0.3 0.4-0.1 0.7-0.1 0.4-0.2 0-0.5-0.5-2-1.2-0.2 0.6-0.3 0-0.2-0.4-1.3 0.2-4.1-1.1-6.4-0.3-6.4 0.7-5.7-0.3-15.6 9.9-14.2 15.7-122.5 0.7-46.3-0.8-0.6-3.5-2.5-0.2-4.1 0.3-34.8-8.3-5.2-2.5-5.9-5.3-2.1-0.3-29.2-11.8-0.8-0.7-1.3 0.4-3.3-0.3-6.1-2.9-3.4-0.5-6.3-4.3-7.3 1.2 0.4-1.6 4.2-3.3 30.9-22.5 2.4-2.6-1-2.2-4.7-7.8 5.8-5.4 0.2-3.8 5.2-2.8 2.9-0.9-1.1-2.6 0.2-2-0.1-1 2.9-0.1 2.8-6.8 8.1-1.4 11 1.7 5.2-1.1 2.3-2.8 3.2-1.8 4.9-0.7 8.4-7.7 2.8-0.9 1.2-3.7 2.8-1.1 2.2-3 15.9-14.8 5.8-7.4 0.2-2-0.5-1.1 0.2-0.4 0.3-0.5-0.3-0.8 0-1.3 1.4-0.7 7.2-2.2 2.5-2.6 1.5-3-2.5-1.8-1-1.3-0.8-0.5-0.6-2.7-1-1.5 8.6-0.1 4.5-3 2.5-1.4 2.7-0.9 5.3 2.1-0.2 4.2-0.5 2.4-0.6 1.7-0.4 3.3-1.2 4.5-1.4 3.6 8.2 2.7 2.8-0.8 1.4-1-0.4-2.2 0.7 0.6 1.3 0 1.4-2.3 1.2-2.5 1.8-0.4 0.4 1.3 1.6-0.4 1.7 2.4 0.9 0.4-0.3 2.1 2 0.6 2.4-0.3 6.1-1.7 1.6 0.1 0.6 1.5 1.4 1.3-1.9 3.2 1 3 7.9-3.3 1.5-6.2 3.3-1.3 1.2 1.1 0.8 0.9 0.4-3.7 1-3.8 1-0.6 1.4-0.2 2.5-1.4 1-0.9-0.2-1.2 0.7-0.7 2.7-0.6 1-0.9 1.4-0.6 2.3-4.1 2.7-1.3 0.3-0.9 0.9 0.1 0.7 0.8 1.3-0.2 0.7 1 1.1 0 2.7 2.6-1.2 2.2 0.7 0.5-0.4 2.6-0.4 1.8-0.8 1.1 0.1 1.5 1.1-0.7 2.6-0.6 6.5 0.6 0.4-4 1.2-0.4 0.9-1.2 3 1.2 1.3-1.3-0.9-0.6-0.1-1.5 0.7-0.8-0.2-0.5 0.2-0.9 1.7-0.9 1-0.7 1 0 2-0.6 1.1-1.7 0.1-1.2 1.9-2.4 4.1 1 0.7-1 1.3-0.5 2.2-1.3-0.4-1.3 1.4-0.8 4.3-1.4 2.4-1.9 1.3-1.6-1.1-0.9-2.3-0.8-1.3 1.5-1.4 0.6 0.1-0.8-0.6-1.5-1.3-2.1-0.4-1 0.5-1.3 1.3 0.2 4.5-0.8 4.6 0.7z"
      class="area"
      id="KAZ3203"
      name="Qaraghandy">
 </path>
 <path d="M660 84.5l0 0.1 3.1 6.3-1.6 0.3-1.4 1.1-0.2 3.1 1 2.2 1.6-1.4 1.4-1.7 1.1-0.7 0.6 0.6 0.8-0.2 1.4 0.8-1.6 2.5-1.1 2.7-2.1 3.8-0.8 1.2 2.3-1.1 1.2 0.6-0.5 1.6-0.4 3.5 3 0.7 1.8-3.4 2.7-0.7 1.9 2.3-0.7 3.1-0.8 1.2-0.5 1.9-1 2.5-0.8-1.5-2.6-1.6-0.8-0.1 0.6 3.3 3.3 1.1 1.8 1.7-7.6-0.6-4.4-3.4-10.2-3.6-2.4-0.2-0.5-4.9-1.1-2.5 0-2.1-1.4-1.9-0.8 1-1.3 0.1-3 0.9-2.6-0.5-2 0.5-5 3.5-7.7-0.2-3.3-1.2-1.4-2.8 1.3-2.1 0.2-4.1 0.8-1.4-1.1-1.8-2.5-2.7-1.7-3-5.9 3.3-1.3 0.4-1.4-0.2-0.8-0.6-3.1-0.7 0-2.3-0.2-0.5-0.7-0.7-6.2 0.1-3.3 0.6-0.9 2.9-1.9 0.7-0.5 2.8-1.7-0.9-1.5-2.6-2.4-1.7-3.2 0.2-1.5-0.1 0.8-1.7 1-1.5 0.3-1.5-1-0.7-2.5 0-1.3-0.3-0.8 0.7-0.1-2.8-0.9-3.3-0.8-1.2-1.5-1-4.2 0.1-4 2.5-0.8 1.3-0.3 1.1 1.2 1.2-0.2 1.4-1.5 0.1-0.8-3.1-0.9-0.5-0.9-1.3-2.4-2-1.2 1.1-1.4 1-2-0.2-0.2-0.7-0.8-0.3-1.6 0.4-0.7 0.5-1.1 0 0.5 2.1 0.4 0.7-1.4 0.4-2.6 0.5 0.4 1.5 0.6 0.5-1.6 0.6-0.8 1-0.6 0.8-1.7 1.1 1.6 3.3 1.7 2 2.5 1.1 1.1 3 1.4 2.4-0.8 4.4-1.8 1.7 0.7 6.2 0.2 0.4-3 1.4-1.7 1.6-2.1 1.1-1 1.6-0.2 1.1-0.9 0.7-0.7 1.4-1.2-0.1-4.9 2.6-1.6 0.1 0.1 1.9 1.8 2.4-2.5 2.9-1.8 0.5 0 1.1-0.5 1.2-2.3-0.8-5.7-3.6-3.1-0.9-2.6 0.5-0.3 5.9-5 0.5-2.5 0.6-8.2-1.6-2.9-0.1-1.3-2.8-5.6 0.2-2.4 0.8-1.9-2.9-4.4-1.4 0.1-6.7 0.8-6.3 1.9-2.1 0.3-3.1 0-1.9-0.7-1.9-0.8-1-0.3-1.5 1.4-2.8 5.3-0.8 2.3-1.6-2.3-2.2-1.4-2.6-0.1-4.4-0.8-4.8-3.1-0.6-1-3.5 2.2-2.5 0.5-4.3-1.7-2.4-1.6-0.3-1.3-4-0.5-3.6 2.6-1.8 6-2.7-2-3.5-2.9-1.3-1.5-2.1 2.9-1.3-3.2-14.2 0-0.1 8.5-3.1 1.5-0.2 3.2 0.1 1.5-0.3 0.5-0.3 1-1 0.5-0.3 4.8-0.2 0.7-0.2 1.4-0.8 0.8-0.2 1.9 0 0.9-0.3 0.7-0.6 0.5-1 0.5-0.7 0.7-0.3 1.6 0.4 1.6-0.3 4.4 0.1 1.9-0.6 1.4-1.2 1-1.7 0.5-0.6 0.7-0.5 0.9-0.3 0.7 0 2.4 1.2 3.8-0.6 0.4-0.5 0.2-1.1 0.5-0.2 0.3-0.4 0.1-0.6 0.2-0.7 0.4-0.3 0.7-0.1 0.6-0.2 0.1-0.9-2-1.2-0.9-1 0.4-1.3-0.5-0.5-0.2-0.2 1.5-0.8 0.6-0.2 0.3 0.2 0.3 0.2 0.4 0.2 0.5-0.1 1.2-0.5 0.6 0 1.9 0.5 1.6-0.6 0.6 0 0.6 0.2 0.3-0.1 0.3-0.5 0-0.4-0.1-0.8 0-0.4 0.4-0.5 1.2-0.8 0.1-0.6 0-0.9 0-0.8 0.2-0.7 0.3-0.7 0.5 0.3 2.4 0.4 0.6 0.3 0.5 0.5 0.9 1.5 0.5 0.6 0.5 0.3 0.7-0.4 0.2-0.5 0.1-0.8-0.2-1.6-0.6-0.4-0.5-0.2-0.3-0.5-0.3-1.4-0.1-0.3 0-0.4 0.2-0.3 0.4-0.3 0.4 0 4.4 1.6 0.6 0.8 0.4 1.4 0.5 0.9 1-0.4 2.1-2 0.5-0.2 3.5 1.6 4.8 0.6 3.2 1.8 0.7 0.7 1.9 2.8 0.7 0.5 2 0.2 0.9 0.3 3.4 2.3 0.4 0.1 0.5-0.4 0.8-1.4 0.5-0.4 2.1-0.7 0.3-0.3 0-0.3 0.1-0.7 0.3-0.7 1-1.6 0.4-0.2 2 0.8 0.5 0 0.6-0.2 0.5-0.3 0.5-0.5 1-0.7 1.3-0.2 1.4 0.3 1.1 0.5-0.4 0.6-0.4 0.7-0.2 0.7 0.3 0.7 1.7 2.2 2.4 3.2 0.4 1.2 0 0.5 0 0.9-0.1 1.1-0.1 0.6-0.2 0.6-0.1 0.8 0.4 1.1-0.2 0.5-0.3 0.5-0.1 0.7-0.1 0.8 0.2 0.6 0.9 1.1 0.2 0.5-0.1 1.2 0.3 1.4 1 1.1 1.2 0.7 1 0.2 1 0 0.5 0.1 0.5 0.5 0.8 1.3 0.3 0.9 0 0.9-0.3 0.6-0.5 0.3-1.3 0.4-0.8 0.7-0.1 1.2 0.2 3-0.1 0.5 0 0.2 0.5 0.6 0.1 0.5-0.1 1.4 0.1 0.2 0.1 0.2 0.5 0.1 0.1 0.2 0 0.4-0.1 0.7 0 0.6-0.1 1.7-1.4 0.3-0.4 0-0.5-0.2-0.9-0.5-0.5-0.1-0.9-0.1-0.5 0.4-0.3 0.8 0.2 1.5 1.5 0.1 0.3 0.1 0.1 0.7 0 1-0.1 1-0.2 0.6 1 0.5 0.3 0.3 0.4 0.7 0.8 1.5 0.4 0.5 0.5 0 0.9-0.6 0.6-0.8 1.3-2.3 0.6-0.5 0.7 0.2 0.8 0.4 0.7 0.1 0.8 0 0.2 0.2 0.2 0.4 0.2 0.5 0.2 2.1 0.5-0.1 1.3-0.7 0.6-0.1 0.2 0.2 0.5 0.5 0.3 0.2 0.4 0.1 0.4-0.1 0.8-0.4 0.7-0.6 0.2-0.6-0.2-1.8 0.1-0.9 0.3-0.7 0.4-0.6 0.5-0.2 4.8 0.5 0.6 0.2 0.4 0.2 0.4 0.5 1.5 2.7 0.5 0.7 0.7 0.3 0.7-0.1 0.5-0.3 0.3-0.7 0-1.2-0.5-0.7-0.6-0.3-0.8-0.1-0.6-0.3-0.5-0.4 0-0.2 0-0.5 0-0.5 0.3-0.9 0.5-1.1 0.1-0.5-0.2-0.4-0.6-0.5-0.8-0.5-0.3-0.4 0-0.7 0.4-0.3 2.7 0.4 0.8 0.5 0.9 1 0.8 1.3 0.3 1.2 0.3 0.5 1.1 0.3 0.3 0.8-0.1 0.5-0.8 1.9 4.5 1.8 0 0.1-0.4 0.9-0.3 0.2-0.4-0.1-0.4 0-0.1 0.1-0.2 0.6-0.1 0.1-0.2 0-0.7-0.3-0.3 0.2 0 0.4 0.1 0.6 0.1 0.3 0.4 0.7 0.6 0.5 0.3 0.7-0.3 0.9-0.6 1.5-0.2 0.9 0 0.6 0.5 0.5 0.7 0.2 0.8 0 0.5-0.4 1-1.2 0.7-1.2 0.3-0.2 0.4 0 2.4 1.1 0.7-0.3-0.1-1.5-0.5-1.2-0.5-0.8-0.6-0.5-0.8 0-2.2 0.4-0.1-0.3 0.1-0.7 0.3-0.9 0.2-0.4 1.1-1.2 1.2-0.3 6.4 0.7 1.4-0.1 0.4 0.1 0.2 0.6 0.2 0.7 0 1.6 1.2 0.6 0.3 0.6 0.2 1.1 0.4 0.6 7.3 1.7 0.3-0.1 0.2-0.3 0.1-0.9 0.2-0.2 0.8 0.1 0.2 0 0.3 0.3 0.6 0.7 0.3 0.1 0.6-0.2 0.3-0.2 0.1-0.6-0.1-1 0.2-0.7 1.4-0.4 0.5-0.6-0.1-0.5-0.2-0.5-0.1-0.3 0.3-0.2 1.3-0.3 0.4 0.1 0.1 1 0.2 0.1 1.4-0.4-1.1 6.5-0.3 1.1-0.5 0.6-0.7 0.1-3.6-0.7-0.7 0.1-0.6 0.3-0.5 0.6-0.5 1 1.1 0.8-2.2 0.8-0.4 0.5-0.6 3.7-1 0.2-0.5 0.3-0.4 0.5-0.2 0.8 0.1 0.5 0.8 1-0.7 1.4 4 2.2-1.1 2.5 1.6 1.2 0.3-0.1 0.6-0.7z"
      class="area"
      id="KAZ3204"
      name="North Kazakhstan">
 </path>
 <path d="M803.1 155.4l-0.5 0.1-0.9 3.2-3.4 1.6 0 1-0.5 1.8-1.2 1.2-1.3 0.9-0.8-0.5-3.4 0.5-1 2.3 1 0.4-0.2 1.6-1.2 1.2-6.4 3.5-1.6 0.3-0.6-1-1.1 0.4-0.6 1.2-2.7 1.7-0.9-0.1-1.3 1.2-0.2 0.4-0.3 0.4-0.2 0.1 0.1 0.6 0.4 0.5 0.4 0.5-0.2 0.8 0.6 0.4 0.6 0.1 0.4 0.5 0.2 1.2 0.1 0.2 0.3 0.4 0.4 0.1 0.1 0.5 0.6 1.5 0.3 0.5 0.3 0.3 0.9 0 0.3 0.3 0.2 0.3 0.2 0.2 1.6 2 6.4 4.1 0.9 5.2-0.2 4 1.2 0.7 1.3 3.6-1.4 3.5-2.2 4-4.9 4.9-7.6-2-5.2-2.3-3.2-2.7-2 0.3-1.5-1.1-0.4-2.3 0.3-3.7-1.1-2.8-5.4-2.7-4.8-1.6-2.1-2.2-3.4-0.2-5.3 5.6-0.9 4-0.6 4.5-2.9-1.1-2.7 0.2-1.5 0.8-1.1 0.1-1.7 2.9-3-1.3-9.3 1.7-2-0.6-1.4 1.8-6.8 0-2.5 2-5.8 3.6-2.1-0.8-1.5-2.5 1-1.1 0.5-1 2.5-1.2 2.6-2-2-1.6-1.7-2.3 0.6-0.6-0.8-1.7-1.3-1.6-0.9-0.1-2.5-2.5-2.3 2.1-1.6-1.9 0.3-3.1-2.8-1.2-1.6-0.4-0.8-0.9-1.2 1-1.9 0.6-5.8 0.8-2.7-2.6 0.6-2.6-0.3-2.8 1.2-0.6 0.8-7.1 0.7-2.1-0.3-1.8-0.5-2-0.7-1.7-7.8-3 1.6-2 1.1-2.1 0.6-1.9 2.4-1.8 3.7-1.5 2.2-0.4 2-1.3-2.6-1.5-2.8-1-0.6-1.4-1.7-0.1-3 0.6 0-3.9 1.6-4.2 2.5-1.8 1.2-1.3-0.6-22.4-0.7-3.2-0.7-0.8-1.8-1.7-3.3-1.1-0.6-3.3 0.8 0.1 2.6 1.6 0.8 1.5 1-2.5 0.5-1.9 0.8-1.2 0.7-3.1-1.9-2.3-2.7 0.7-1.8 3.4-3-0.7 0.4-3.5 0.5-1.6-1.2-0.6-2.3 1.1 0.8-1.2 2.1-3.8 1.1-2.7 1.6-2.5-1.4-0.8-0.8 0.2-0.6-0.6-1.1 0.7-1.4 1.7-1.6 1.4-1-2.2 0.2-3.1 1.4-1.1 1.6-0.3-3.1-6.3 0-0.1 1.8-1.8 0.6-0.6 0.2-0.3 0.2-0.5 0.2-0.7 0.1-0.4 0.1-0.2 0.5-0.2 0.2 0 0.6 0.1 0.2-0.1 0-0.7 0.2-0.6 0.1-0.6 0.1-0.1 1.9 0.1 0.4 0.1 0.9 0.5 0.3-0.2 1.7-1.3 0.8-0.3 0.8 0 1 0.1 1.6 0.2 0.4 0.3 0.1 0.6-0.1 0.8 0.1 0.7 0.3 0.3 0.8 0 0.2-0.2 0.5-1 0.3-0.1 1.6 0 0.2 0.1 0.3 0.5 0.1 0.6 0.3 0.5 0.4 0.1-0.1 1 0.1 0.6 0.9 0.9 1.3 1.1 0.7 0.1 0.5-0.6 1.2-3.8 0-0.3-0.3-0.3-0.4-0.5-0.2-0.2 0.2-2.1 0.3-0.8 0.3-0.5 4 0.2 0.3-0.3 0.4-2 0.2-0.5 0.2-0.3 0.3-0.1 1.3-0.1 0.2-0.2 0.2-0.6 0.3-1.2 0.2-0.6 0.2-0.4 0.8-0.2 2.1 0 0.8 0.2 1.9 1.1 0.7-0.1 6.1-4.6 3.8-2.8-1.8-3.1 1.7-1.2 0.8-0.5 0.9 0 2.5 0.3 0.9-0.2 2.8-1.3 10.5-5.1-0.3-0.9 0-0.7 0.1-0.7 0.5-0.8 0.5-0.7 0.4-0.2 4.9 1.3 1.1-0.3 1.5-1.1 0.5-0.3 0.4 0 0.8 0.1 0.3 0 0.5-0.5 0.1-0.7 0-0.8 0.1-0.8 0.6-0.6 0.6-0.2 1.4 0.1 0.6-0.1 1.7-0.9 0.5-0.1 0.6 0 0.4 0.4-0.2 0.9-0.4 0.4-2 0.6-0.5 0.3-0.5 0.5-0.3 0.6 0.3 0.5 1.2 0.4 0.5 0.4 0.2 1-0.1 1-0.4 0.8-0.5 0.7-0.5 0.8-0.3 1.2-0.2 0.5-0.2 0.3-0.6 0.6-0.3 0.4-1.2 1.5-1.5 0-3.1-1.2-1.6-0.1-0.5 0.2-0.4 0.3 0 0.3 2.5 4.4 0.1 0.5 0.3 1.5 0.8 1.3 5 4.2 4.6 3.6 4.5 3.7 4.5 3.6 4.6 3.7 3.3 2.6 3 3.4 3.2 3.6 2.7 4.3 4.3 7.5 2.6 4.7 2.7 4.6 2.6 4.7 3.5 6.5 3.4 6.4 3.5 6.5 3.5 6.4 5.2 9.9 1.2 2.2z"
      id="KAZ3205"
      class="area"
      name="Pavlodar">
 </path>
 <path d="M876.2 382.5l-0.6 0.3-3.6-1.4 0.3-3.6-1.3-4-2.5-3.5-1.7-5.6-6.5-8.7-1-2.9-4.7-2-0.1-1-0.9-0.6-2.7 0.1-0.7-0.9-1.6-0.9-2.8-0.1-6.7-1.7-10.5-5.2-1.9-1.2-0.1-1.6-6.1-2.3-12.9 0.7-4.4-6.1-6.5-1.2-2.3 0.3-3.6-0.5-1.6-2.3-2.4-0.4-1.9-1.8-7-3.9-4 3.2-1.6-1.6-2.4 1-2.4 1.9-4.7-0.8-1.9 0.9-6.4 0.4-1.3 2.7-5-1.4-3.1-3.4-1.4-0.8 1.2-0.6 1-1.4 0.5-2-0.1-1.4 4.4-1.2-1-4.5-0.6-1.8-0.6-0.8 2.3-8.6 1.6-2.6 1-3.2 3.3-1.9-2.9-1.1-2.9-1.7-0.5-2.7 2.4-1-2.2-1-2.5-0.2-0.6-1.4-1.9-1.1-0.6-1.2 1.1-0.9 0.4-1.6 0.8-1.3 2.5-0.2 3.2-2 2.2-2.5 0.2-1.8 0.5-1.9-0.3-3.8-4.1-0.3-5.4 0.7-2.1-2.2-0.1-4.4 2.3-1 1.7-1.6-3.4-3-0.1-1.5-2.4-2.6-2.8-1.6-1.5-2.5 3.4-5.3 5-2 4.8-3.8 0.6-3.9 0.1-1.9-0.1-1.6-0.2-1.3 0.2-0.9 1.2-1.3 2.1-0.6 2.9-1.4 5.4-5.3 1.6-2.9 2-0.3 3.2 2.7 5.2 2.3 7.6 2 4.9-4.9 2.2-4 1.4-3.5-1.3-3.6-1.2-0.7 0.2-4-0.9-5.2-6.4-4.1-1.6-2-0.2-0.2-0.2-0.3-0.3-0.3-0.9 0-0.3-0.3-0.3-0.5-0.6-1.5-0.1-0.5-0.4-0.1-0.3-0.4-0.1-0.2-0.2-1.2-0.4-0.5-0.6-0.1-0.6-0.4 0.2-0.8-0.4-0.5-0.4-0.5-0.1-0.6 0.2-0.1 0.3-0.4 0.2-0.4 1.3-1.2 0.9 0.1 2.7-1.7 0.6-1.2 1.1-0.4 0.6 1 1.6-0.3 6.4-3.5 1.2-1.2 0.2-1.6-1-0.4 1-2.3 3.4-0.5 0.8 0.5 1.3-0.9 1.2-1.2 0.5-1.8 0-1 3.4-1.6 0.9-3.2 0.5-0.1 1.4 2.7 2.6 4.9 4.4 9.4 4.3 9.4 2.5 5.2 0.7 2 0.2 0.6 0.6 0.9 0.8 0.8 0.8 0.5 0.8 0.1-1.4-2.2-0.4-1.2 0.9-0.5 0.4 0.2 0.8 1 0.5 0.2 0.5-0.1 0.3-0.3 0.4-1.3 0.3-0.6 0.3-0.3 1-0.4 0.2-0.2 0.4-0.5 0.2-0.2 0.3 0 1 0.1 1-0.2 1-0.6 0.9-0.9 0.5-1.4 0.1-0.5 0-0.7 0-0.7-0.1-0.6-0.2-0.6-0.7-0.7-0.3-0.5-0.1-0.5 0-0.7 0.2-1.3 0.2-0.7 0.3-0.6 0.4-0.2 0.6-0.1 2.1 0.3 0.9-0.3 0.3-1 0.1-0.6 0.1-0.6 0.3-0.5 0.3-0.4 0.5-0.4 0.4-0.1 3.3 1.6 0.6 0.1 0.3-0.3 0.3-0.4 0.4-0.3 0.6 0 0.2 0.5 0 1.4 0.2 0.7 0.3 0.4 1 0.6 1.1 0.6 0.6 0.1 0.6 0.1 0.7-0.8 0.3-0.2 0.5 0.1 0.5 0.3 0.2 0.5-0.1 0.6-0.2 0.9-1.6 4.1-0.7 2.3-0.1 0.6 0.2 0.3 0.5 0.3 0.6 0.1 1.4 0 2.9-1 3 0.1 0 1.4 0.4 1.3 0.5 1.2 0.7 1-0.6 0.8-0.4 1-0.2 1 0.3 0.8 0.7 0.4 5.3-0.2 0.5-0.4 0.7-1.1 0.5-0.4 0.4 0 1 0.7 0.5 0 1.8-0.3 1.2 0.2 1.1 0.4 0.5 0.3 1.5 1.4 0.6 0.3 1.2 0.2 0.7 0 0.6-0.3 0.4-0.4 0.5-0.6 0.5-0.4 0.4 0.1 0.4 0.2 0.3-0.1 0.3-0.3 0.3-0.1 0.4 0 0.5 0.3 1.1-0.2 0.5 0.3 1.1 1 3.2-2.1 1.7-0.8 0.6-0.8 0-2.7 0.7-0.8 0.9-0.2 1.9 0.6 3.3 0.3 1.1-0.3 0.9-1 0.7-1.4 0.5-1.6 0.2 0 0.5 0 0.6 0.2 0.4 0 0.4 0 0.4-0.2 2.8-0.3 2.7 0.3 0.6 1.1 0.4 0.5 0.5 0.3 2.8 0.5 0.5 0.3 1.4 1.3 0.6 0.3 0.5 0.1 1.1 0 0.5 0.2 0.5 0.3 0.4 0.4 0.8 1.4 0.3 0.3 1 0.5 0.7 0.8 0 2.4 0.6 1.2 3.1 2.2 0.7 1.1 0.3 0.7 0 0.6 0.2 0.6 0.8 0.9 0.3 0.6 0 0.7-0.5 2.1 0.4 1.2 0.6 1.2 0.5 1.2 0.1 0.9-0.1 0.9 0 0.8 0.3 0.7 0.3 0.2 0.7 0.2 0.3 0.2 0.2 0.3 0.3 0.6 0.2 0.3 0.9 0 0.9-0.7 0.9-0.5 0.8 0.6 0.7 0.9 0.8 0.5 0.8 0.2 0.9-0.1 0.9 0.1 0.6 0.6 0.5 0.7 0.8 0.6 0.4 0 0.9-0.1 0.4 0.2 0.3 0.4 0.6 1.4 0.3 0.2 0.4-0.1 0.4-0.3 0.4-0.2 0.5 0.1 1.6 0.7 0.3 0.3 0.8 1.3 0.2 0.5-0.1 0.6-0.4 0.3-1 0.2-0.3 0.1-0.1 2.1 0.1 1 0.5 0.5 1.4 0.4 0.6 0.4 0.3 0.9 0.2 1.4 0.1 0.5 0.4 0.7 1.6 1.8 0.5 1.1 0.3 3 0.7 1.1 0.9 0.5 1-0.3 0.4-0.3 0.6-0.4 0.5-0.2 0.5-0.1 0.6 0.3 1 0.8 0.6 0.2 1-0.1 0.4-0.1 0.4-0.3 0.8-0.7 0.4-0.2 0.4 0.1 0.4 0.4 0.3 1.1 0.4 0.5 0.4 0.1 0.4-0.1 0.9-0.3 0.5 0 0.4 0.2 0.4 0.4 0.3 0.5 0.4 0.2 0.4-0.1 0.9-0.7 0.4-0.2 0.5 0 1 0.2 0 0.3-0.2 1.5 0 0.7 0.3 0.4 0.5 0.1 0.4-0.1 0.4-0.4 0.7-0.9 1.1-0.4 1 0.2 0.6 1.1 1 1.1 0.9-1.2 0.8-2.1 0.6-1.2 1.4-1 1.5-0.6 1.7-1.5 0.4-0.2 0.1-0.3 0.1-0.3-0.1-0.4-0.2-0.5 1.2-0.7 0.4-0.4 0.2-0.1 0.3 0 0.2-0.1 0.4-0.6 0.3-0.8 0.4-0.5 0.8 0 1 0.6 0.4 0 0.7-0.2 0.4 0 0.3 0.2 0 0.4-0.2 0.4-0.2 0.5-0.1 0.3 0 0.5 0.3 0.4 0.6 0.7-0.5 0.5-0.5 0.3-0.4 0.2-1.2 0.1-0.5 0.4-0.9 1.3-0.4 0.7-0.1 0.5 0.2 0.5 0.5 0.6 0.6 0.4 0.5 0 1.1-0.2 0.6 0.1 1.7 1.1 0.5 0.5 0 0.6-0.2 0.7-0.1 0.9 0.4 0.6 0.6 0.5 1.3 0.6 0.7 0.5-0.1 0.4-0.4 0.4-0.2 0.7 0.2 0.5 0.5 0.5 1.6 1.3 0.3 0.3 0.1 0.3 0 0.6 0.2 0.3 0.3 0.3 0.3 0.1 0.6 0.1 2.1-0.2 0.7 0.2 0.7 0.3 1.3 0.9 0.4 0.8 0.5 2.6 0.4 1.1-3-0.9-1-0.5-1.1-0.3-3.4 1.4-0.7-0.1-1.5-0.5-0.6 0.1-0.6 0.4-0.5 1.4-0.4 0.6-1 0.8-0.4 0.4-0.4 0.7-0.3 0.8-0.1 0.5 0 0.7 0.2 0.9 0.6 1.2 0.8 0.8 0.3 0.7-0.6 1.2-0.4 0.5-0.2 0.4 0 0.4 0.3 1.6 0 0.5-0.2 0.4-1.8 2.6-1.2 1.2-0.3 0.4-0.3 0.6-0.5 1.3-0.2 0.5-0.5 0.3-2.8 1.2-2.4-0.2-0.6 0.3-0.6 0.5-0.9 1.2-1.4 0.7-4.5-0.4-5.4 0.8-0.9 0.6-0.7 1.2-3.3 8-0.6 4-0.3 1.4-0.5 0.9-0.2 0.8-0.1 0.9 2 10.8 0 1.2-0.4 2.4 0.1 1.2 0.4 1 1.7 2.9 0.2 0.7-0.1 0.7-0.2 0.7 0.1 0.6 0.2 0.7 0 0.5-0.2 1.2-0.1 0.8-0.2 0.5-0.3 0.3-1.1 0.1-0.6 0.2-0.5 0.4-0.2 0.6-0.1 0.7-0.1 0.5-0.2 0.5-0.4 0.5-0.2 0.7 0 0.6-0.2 0.5-1.6-0.1-3.2 0.5-1.4-0.2-0.5 0.1-0.5 0.3-0.3 0.4-0.6 1.1-0.5 0.5-1.7 1.2-0.7 0.9-0.3 0.2-1.1 0.2-0.4 0.2-0.4 0.4-0.5 1.1-0.5 0.4-1.9 0.4-1.8 0.7-0.6 0.1-0.5-0.2-0.1-0.5 0.2-0.5 0.3-0.6 0.3-0.6 0.1-1.2-0.5-1.1-0.8-0.8-0.9-0.5-1.2-0.1-2.3 0.6-1.1-0.2-1.3-0.6-0.4-0.1-0.4 0.1-3-0.3-2.6 0.3-1.6 0.9-0.6 0.1-1.7-0.4-2.3 0-9.3-3.3-4.2-2.8-1-0.5-2.2-0.5-0.5-0.3-1.3-1.1-0.6-0.2-0.6-0.1-0.7 0.1-0.6 0.1-0.6 0.3-0.2 0.4 0 1.5-0.1 0.4-0.2 0.8-0.1 0.4 0 0.3 0.2 0.7 0 0.4-0.4 1.4-0.1 0.7 0.1 0.7 0.1 0.6 0 0.6-0.2 0.6-3.6 7.5-2.2 8.5-1 2.1-0.1 0.6-0.3 1.9-0.4 1.1-1.6 2.7-1 2.1-0.6 2.3-0.7 4.9-0.6 3.2-0.4 1-0.6 1.7-1.9 3.2-0.9 3.4-0.7 1.9-0.2 0.9z"
      id="KAZ3206"
      class="area"
      name="East Kazakhstan">
 </path>
 <path d="M876.2 382.5l-0.2 0.8 0.9 1.4 0.9 0.4 3.7 0.5 2.5 1.1 0.4 0.7 0.1 1.3-0.1 1.3-0.5 3.2-0.7 2.5-1.1 1.8-1.6 0.3-1.1-0.7-2.1-2.4-1.2-0.8-1.2-0.1-1.3 0.3-4.7 2.4-1.2 0.3-1-0.5-0.4-0.5-0.4-0.3-1.7-0.2-0.3-0.3-0.2-0.4 0-0.8-0.1-1.2-0.4-1.5-0.7-1-0.8-0.1-1-0.3-1 0.5-2 1.4-9.7 3.1-2 1.1-1 0.4-1.1 0-3 1.2-0.6 0.1-2-0.7-1.2 0-3.9 1.5-1.7-0.2-0.6 0.1-0.5 0.4-0.4 1.3-0.4 0.3-0.6 0.1-1.9-0.1-1.7 0.7-1.7-0.3-1.1 0.1-1 0.5-1 0.8-2.4 2.2-1.1 0.6-0.5 0.3-0.4 1.1 0.6 0.8 3 1.9 1.2 0.1 4.4-0.9 0.6 0.1 0.5 0.2 1.2 1 4 1.5 0.4 0.3 0.1 0.4-0.1 0.5-0.4 0.3-1.6 0.3-0.9 0.4-0.5 0.7 0 0.4 0.1 0.3 0.5 0.6 0.1 0.4-0.1 0.4-0.3 0.7-0.7 2.6-0.2 1.4 0.1 1.3 1 5 0 1.3-0.7 2.5-0.2 1.3 0.2 0.6 0.3 0.4 0.8 0.9 0.3 0.5 0.2 0.6 0 0.6 0 0.7 0.3 0.7 0.4 0.8 0.9 1.3 2.9 7.7 2.9 7.6-0.1 1.1-0.4 1.1-1.2 2.3 0.3 0.5 1 0.2 0.9 0.5 0.3 0.5 0.2 0.6 0.1 0.6 0 0.7 0.1 0.6 0.6 1.1 0.1 0.6-0.1 0.7-0.4 0.5-0.4 0.3-0.6 0.1-0.5-0.1-1.2-1-1 0-1.1 0.5-1.9 1.4-2.1 1-1.1 0.6-0.3 1 0.5 0.8 0.8 0.7 1.7 0.8 1.1 0.2 0.5 0.3 0.3 0.6-0.1 0.6-0.6 0.4-1.2 0.1-1.9 0.7-0.4 0.4-1.2 0.5-0.4 0-0.9-0.2-0.4 0-0.4 0.2-0.5 0.9-0.5 2-0.4 0.9-0.9 1.4-0.2 0.5-0.1 0.8 0.1 0.5 0.2 0.5 0.2 1.3 0.3 0.5 0.6 1 0.3 0.5 0 0.4-0.1 0.5-0.3 0.6 0 0.4 0.6 2.6 0.2 0.6 0.2 0.4 0.3 0.5 0.5 2.4-0.2 0.7-0.3 0.4-0.9 0.5-1.1-0.6-0.7-1-0.7-1.2-0.8-1-1.6-1.5-0.9-1.4-0.3-0.4-1.1-0.7-5.4-1.1-1-0.1-2 0.4-2.3-0.1-1.3-0.6-0.7-0.9-1.1-2.6-0.7-0.9-2-0.9-0.8-0.9-0.4-0.6-0.2-0.6-0.2-0.7 0-0.7 0.1-1.3-0.1-0.4-0.7-0.1-0.9 0.2-1.9 0.9-1 0-0.9-0.4-1.6-0.1-2-0.8-2.9-0.3-0.4-0.2-0.9-0.7-1-0.6-2.4-0.9-1.6-0.1-1.1 0.1-0.5 0.1-0.9 0.6-0.4 0.2-0.5-0.1-1-0.3-0.5-0.1-1.1 0.2-1.1-0.1-2.7 0.2-1.1-0.1-1.3-0.9-0.6-0.2-0.6 0-0.5 0-0.2 0.1-0.4 0.3-0.7 0.3-0.3-0.2-0.1-0.2-0.3-0.4-1.6-0.4-1.6-0.1-0.5 0.1-1.3 0.6-0.4 0-0.5-0.2-0.4-0.4-0.5-0.3-1 0-0.6-0.2-0.4 0-0.4 0.1-1 0.5-0.8 0.2-2.4-0.4-0.9 0-0.4-0.1-0.4-0.3-0.7-1-0.2-0.2-0.9-0.3-2.7-0.5-0.5-0.2-0.5 0.1-1 0.3-1 0.1-0.5 0-0.5 0.4-0.5 0.6-0.3 0.1-0.5-0.1-0.2 0.1-0.2 0.4-0.9 0.5-0.5 0.1-1 0-1 0.4-0.5 0.1-0.6-0.1-1.3-0.6-0.6 0-0.5 0.2-0.7 0.7-0.5 0.1-0.2-0.1-0.3-0.5-0.2-0.2-0.3 0-0.5 0.2-0.3 0.1-2.1-0.7-2.2 0-1.8-0.4-0.6 0-1.6 0.5-0.6 0-1.9-0.6-0.9-0.1-1.3 0.1-0.8-0.8-4.7-0.7 1.7-1.2-2-1.8-2.9-1.2-2.1-1.7-0.7-1.2-0.3-0.9-0.2-1-0.5-1.6 1.6-3.3 1.6-2.4-2-1.2-2.2 0-0.8-1-0.9 0.4-2-0.5-2.1-0.9 6.2-10.6 1.2-3.1 0.2-3.8-2-2.5-2.4-2.3-4.1-2.4-5.4-0.8-3.6-3.4-1.3-3.6-0.5-4.7-9.4-8.7-1-2.3-0.4-3-2.4-0.5-2.4-0.1-2.1-3.3 0.8-2.9 6-0.4-0.5-1.7-0.5-1.9-0.5-5.7 0.6-8.4 3.1-6.3 14.2-15.7 15.6-9.9 5.7 0.3 6.4-0.7 6.4 0.3 4.1 1.1 1.3-0.2 0.2 0.4 0.3 0 0.2-0.6 2 1.2 0.5 0.5 0.2 0 0.1-0.4 0.1-0.7 0.3-0.4 0.2-0.2 1.2-0.5 0.3 0 1.3 0.3 0.5 0.1 0.5-0.2 0.5-0.5 0.1 0.3 0.1 0.4-0.1 0.3-0.3 0.2 0.4 0.7 0.6 0.5 2.3 0.9 1.4 0.8 0.7 0.3-0.7-0.9-1-1.1-0.8-1.3-0.2-1.1 0.3-0.2 0.6 0.3 1.2 1.5 0.2 0.1 0.3 0 0.3 0 0.6-0.2 1.2-0.2 1.1 0.4 0.9 0.9 0.8 1.3 0.1 0.3-0.1 0.2 0 0.2 0.4 0.3 0.2 0 1.7-0.4 0.3-0.5 0.3-0.5 0.3-0.5 0.5-0.4 0.5-0.2 2.1-0.2 1.8-0.7 0.7 0.1 0.5-0.3 2.1-1 0.3-5-0.8-12.9 1.9-0.9 4.7 0.8 2.4-1.9 2.4-1 1.6 1.6 4-3.2 7 3.9 1.9 1.8 2.4 0.4 1.6 2.3 3.6 0.5 2.3-0.3 6.5 1.2 4.4 6.1 12.9-0.7 6.1 2.3 0.1 1.6 1.9 1.2 10.5 5.2 6.7 1.7 2.8 0.1 1.6 0.9 0.7 0.9 2.7-0.1 0.9 0.6 0.1 1 4.7 2 1 2.9 6.5 8.7 1.7 5.6 2.5 3.5 1.3 4-0.3 3.6 3.6 1.4 0.6-0.3z m-129.4 79.8l0.7-2.2 0.1-3-0.9-0.8-1.5 0.5-0.8 0.8-0.9 1.1-0.7 1.4-0.7 0.6 0 1.6 0.8 0.7 1.6-0.1 1.3 0.4 1-1z"
      id="KAZ3207"
      class="area"
      name="Almaty">
 </path>
 <path d="M103.1 403.9l0.5 0.1 0.3-0.1 0.4-0.5 0.2 0 0.1 0.4 0.2 0.1 0.2 0.3 0 0.8 0 0.4 0.2 0.3 0.3 0.6 0.1 0.2-0.5-0.1-0.3 0-0.4 0.2-0.3 0.1-0.1-0.2 0.2-0.4 0-0.2-0.3-0.1 0-0.2 0.1-0.3-0.2-0.4-1.1-0.8-0.4-0.6 0.1-0.6 0.2 0 0.1 0.5 0.4 0.5z m-15.3 0.3l0.3 0.2 0.3-0.1 0.1 0.8 0 0.9 0.3 0.6 0.9 0.3 0.4 0.4 0.4 0 0.8-0.6 0.3-0.1-0.4 1.1-0.7 0.4-0.8-0.1-0.7-0.4-0.4-0.4-0.1-0.3-0.1-0.4-0.1-0.6-0.3-0.5-0.9-0.9-0.4-0.9 0-0.7 1.3-3.1 0.3-0.3 0.4-0.2 1.1-0.3 0 0.6-1.5 0.9-0.3 0.8-0.1 0.5-0.4 0.8 0 0.6 0 0.5 0.3 0.5z m7.7-5.3l0.2 0.4-0.3 0.7-0.1 0.3-0.2 0.2-0.1 0.2 0.2 1.3-0.2 0.7-0.5 0.5-0.6 0.1-0.4-0.2-0.2-0.8 0.1-0.8 0.2-0.9 0.1-0.7 0.1-0.6 0.3-0.2 0.5-0.1 0.5 0 0.3-0.2 0.1 0.1z m57.6-11.1l-0.7 0.2-1.2-0.4-0.9-0.8-0.7-0.8-0.2-0.8 0.3-0.5 0.4-0.3 0.3-0.3 0.1-0.2-0.1-0.3 0.2-0.1 0.8 0.1 0.5 0.1 0.4 0.6 0.4 1 0.3 1.2 0.1 0.5 0 0.8z m92.1-23.8l1.7 4.6 4 27.4 0 0.2-4.1 1.3-13.7 4.4-0.1 0.1 0 8 0 7.8 0.1 7.9 0 7.8 0 7.8 0 7.8 0 7.7 0 7.7 0 7.7 0 7.6 0 7.7 0 7.5 0 7.6 0 7.5 0 15-1.7-0.1-0.8 0.1-2.2 1-2.2 0.3-1.5 0.6-3.1 0.2-0.7-0.3-0.7-0.4-0.5-0.4-0.4-0.5-0.7-1.7-0.3-0.5-0.4-0.5-1.5-1-0.9-0.8-0.7-0.9-3.2-5.6-3.6-4.9-0.3-0.6-0.1-0.7 0-0.7 0.1-0.6 0-0.5-0.2-0.7-0.6-0.7-4.1-3.8-9.5-6.4-3.8-2.5-1.7-0.7-1.9-0.2-9.6 1.7-4.3 0.8-1.6 0.3-5.4 2.2-1.4 0.8-3.8 1.4-5.2 4.4-3.3 3.2-3.7 3.8-1 1-0.1-0.7 0.2-0.7 1-2.4 0.2-1.2-0.2-1.3-0.2-0.7-0.3-0.6-0.5-0.4-0.2-0.3-0.1-0.4 0.2-1.1 0-0.4-0.2-0.3-0.7-0.8 0.3-0.5 0.2-0.6 0.2-0.6 0-0.7 0.2-0.5 0.3-0.2 0.4-0.2 0.4-0.3 1.2-2.3 1.4-1.8 0.2-0.6 0.1-0.4 0-0.7 0-0.4 0.1-0.2 0.7-0.8 0.2-0.3 0.1-0.3 0-0.5 0.1-0.3 0.4-1.3 0.2-1.2 0-1.2-0.3-1.3-0.6-1.4-0.5-0.8-1-0.7-0.3-0.7 0-0.7 0.2-0.3 0.2 0.4 0.2 0.7 0.3 0.7 0.4 0.3 0.2 0.1 0.9 0.6 0.1 0.2 0.1 0.4 0.1 0 0.4 1.3 0.2 0.5 0.3 0.3 0.2-0.3 0.3-0.6 0.2-0.8 0.1-0.7-0.2-1.5-0.6-0.9-0.9-0.6-1.1-0.1-0.1-0.8-1.3-0.8-2.5-0.9-2.4-0.2-0.4 0-0.3 0.1-0.3 0.1-0.3 0.2-0.1 0.2-0.3 0.6-0.1 0.2-0.6-0.3-1.7-2.2-0.9-0.7-0.6-0.1-2.1 0.3-1.6 0.7-0.9 0.6-0.5 0.2-0.5-0.2-1.5-1.8-0.3-0.5-0.6-1-0.3-0.6-0.3-0.5-0.2-1.3-0.3-0.6-1.1-1.4-0.4-0.7-0.3-0.1-0.3 0-0.2-0.2-0.2-0.4 0.1-0.3 0.2-0.2 0.1-0.4-0.1-0.7-0.3-0.6-0.4-0.4-1 0.5-1.2-0.1-0.6 0.1-0.1 0.2-0.4 0.4-0.2 0.1-0.3-0.1-0.6-0.3-0.3-0.1-2.3 0.5-2.2 0-0.3-0.3 0.1-0.8 0.8-2.7 0.3-1.4 0.2-4.5-0.2-0.6-0.7-1.6-0.1-0.3-0.1-0.3 0-0.8-0.1-0.3-0.3-0.4-1-0.7-0.2-0.6-0.1-0.5-0.2-0.1-0.5 0.2-0.5-0.1-0.4-0.3-0.6-0.9-2.3-4.8-0.2-0.6-0.1-0.9-0.5-0.7 0-0.3 0.1-0.8-0.1-0.3-0.2-0.4-0.7-0.6-0.1-0.3-0.2-0.7-0.4-0.5-0.3-0.7-0.2-0.3-0.3-0.1-0.5-0.2-0.2-0.2-0.2-0.4 0-0.3 0.1-0.3 0.1-0.5-0.1-2.8-0.1-0.7-0.2-0.6-0.6-0.8-1-0.7-2.1-1-8.6-1.6-1.1-0.5-0.5-0.4-0.5-0.5-0.5-0.6-0.2-0.7 0.2-1.6 0-0.7-0.2-0.7 0.2-0.2-0.2-0.7-0.1-1.1 0-1.1 0.3-0.6 0.4 0.9 0.4-0.4 0.2-1 0.1-0.5 0.3-0.2 0-0.4 0-0.5 0.1-0.3 0.3-0.3 0.2 0.1 0.3 0.3 0.2 0.1 3.9 0.8 1.2-0.1 1.1-0.4 0.6 0 0.3 0.6 0.3 0.1 2.2 0 0.3 0.4 0.3 0.1 0.3-0.2 0.3-0.6 0.1-0.1 0.3-0.1 1.2 0.1 0.7 0.1 0.5 0.3 0.9 0.8 0.7 0.9 0.2 0.2 0.6-0.1 0.3 0.1 0.1 0.2 0 0.3-0.2 0.1-0.3 0.1 0.4 0.5 0.7 0.5 2 0.9 0.7 0.1 0.7 0 0.7-0.2 0.6-0.3 1.3-1.3 0.1-0.3 0.4-0.2 0.6 0 0.3 0 0.7-0.2 0.4 0-0.2 1.1 0.7 0.2 1.7-0.4 1.6 0.8 0.5-0.1 0.4-0.4-0.1-0.5-0.4-0.4-0.4-0.3-1.4-0.8-1-1-0.6 0-1.2 0.4-1.1 0.1-0.7-0.6-0.8-2.6-0.6-1-0.8-0.8-2-1.2-0.6-0.7-0.9-0.1-0.2-0.1-0.1-0.2-0.3-0.3-1.6-1-0.2-0.6 0-0.8 0.1-0.7 0.4-0.3 0.2-0.1 0.1-0.3 0-0.3-0.1-0.2-0.2-0.2-0.4 0-0.3-0.1-0.1-0.4 0.3-0.6 0.5-0.3 0.7-0.2 0.5-0.1 0.6 0.1 0.3-0.1 0.3-0.3 0.4-0.7 0.3-0.2 1-0.7 0.6-0.3 0.6-0.2 0.4 0.3 0.4 0.6 0.5 0.5 0.5 0.1 0.2-0.5-0.1-0.7-0.4-0.6-0.3-0.5-0.1-0.4 0.1-0.4 0.2-0.4 0.1-0.3-0.1-0.3-0.3-0.7 0.2-0.5 0.3-0.6 0.7-1.1 0.2-0.5 0.2-0.6 2.2-2.6 0.2-0.6 0.1-0.8 0.1-0.6 0.4 0.3 0.6 1.2 0.9 0.4 1.2 0 1.2-0.3 0.9-0.6 0.8-0.9 0.2-0.1 0.5 0 0.3-0.1 0.3-0.6 0.3-0.7 0.3-0.6 0.5-0.4 0.3 0.4 0.3 0.4 0.1 0.6 0.1 0.4 2.1 0.4 0.4 0.2 0.7 0.6 0.4 0.2 0.5-0.2 0.8-0.6 0.4-0.2 0.6 0.1 1 0.3 0.5 0.1 7.5-1 1.1 0.3 1.8-0.3 1.1 0.3 4.2 1.8 2.4 0.4 1.2 0.7 0.6 0.2 2.3-0.3 0.6 0.1 1.4 0.6 0.6 0 0.5-0.2 1-0.6 0.6-0.1 0.1-0.1 0.3-0.3 0.2-0.1 0.6 0.2 0.4-0.3 0.2-0.3-0.1-0.3-0.4-0.3-2.6-0.5-0.2-0.2-0.3-0.4-0.2-0.2-0.8-0.1-1.1-0.3-3.1-1.6-0.6-0.1-0.2-0.1-0.5-0.7-0.1-0.2-0.3-0.1-0.9-0.1-1.2-0.5-0.4-0.3 0.2-0.5-0.3-0.5 0-0.3 0.2-0.4 0-0.3-0.1-0.5 0.1-0.9 0.1-0.6 0.3-0.4 0.5-0.2 0.4-0.2 0.2-0.7 0.4-1.2 1-1.7 0.1-0.1 4.3 1 12.1-3 5.4-3.4-1.5-1.8 2.3-2.3 3.9-5.3 2-0.6 1.4 0.1 0.8-0.7 19.1-4 8.4-0.4 5.6-4.8 4.9 4.4 1.7-1.1 2 2 0.1 3.4 2.7 1.3 2.4-0.3 0.9 1.6 1.4 1 2.5-0.2 1.9 0.7 1.2 0 2.7 1.3z"
      id="KAZ3236"
      class="area"
      name="Mangghystau">
 </path>
 <path d="M555.4 369.2l3.1 5 5.4 14.1 7 25.1 2.6 16.9 0.2 2.6-0.8 1.2-5.9 17.8-2.2 3-0.6 1.1 1.3 0.5 0.9 0.8-0.1 1.5 1.4 2.1 1.1 0.6 2.6 0.9 2 0.1 1.2 0.3 1.7 1 1.9 0.7 0.5 2.2 0.8 0.9 1-0.1 0.7 0.7-0.6 1.1 1.4 1-0.4 1 0.6 1.1-0.2 2.5 0.3 2.9 1.3 2 1.8 0.4 1 0.5 1.6 1.4 1.1 1.5 0.7 1.1 1.1 0.5 2.5 2.8 1.8 0.7 0.1 1 0.6 0.4 0.1 0.4 1.3 1.3 0.1 0-0.6 0.5-0.3 0.6 0.2 0.4 0.9 1 0.6 0.3 0.7 0.2-1.7 1.3-0.9 0.5-0.9 0.1-1.2-0.3-0.6 0-0.3 0.5-0.2 0.6-0.3 0.5-0.6 0.8-0.6 1.1-0.5 1.2-0.5 0.9-0.7 0.4-0.6-0.1-0.5-0.2-0.4-0.4-0.2-0.6-0.2-0.4-0.4-0.4-0.4-0.4-0.4 0-2.3 1-1.1 0.9-0.6 1.4-0.2 0.5-0.3 0.4-0.4 0.2-0.4 0.1-0.5 0.3-0.3 0.4-1.7 2.8-0.6 0.8-2 1.5-1.4 0.5-0.4 0.3-0.3 0.5-0.7 0.9-1 0.4-2.8 0.1-3.3 0.9-0.4 0.4-0.7 0.8-2.5 1.9-1.4 0.5-0.6 0.5-0.3 0.8 0.1 0.4 0.4 0.7 0 0.4-0.3 0.1-1.4-0.2-0.4 0.1-0.9 0.6-0.4 0-0.7-0.3-0.4 0.1-1.4 0.9-0.5 0.6-0.3 0.6-0.5-0.1-0.4 0.1-1.1 0.6-0.2 0.1-0.2 0.3 0.1 0.2 0.4 0.5 0.1 0.4 0 0.5-0.4 3.1-0.2 0.4-0.4 0.4-0.8 0.6-0.9 0.4-1 0.2-0.6 0.1-0.3 0.5-0.6 1-1.7 0.8-0.6 0.7-0.9 2.6-0.5 0.6-1.5 0.7-0.7 0.5-0.3 0.7-0.4-0.2 0 0.3 0 0.8 0 0.3-0.1 0.3-0.3 0.3-0.1 0.5 0.2 2.7 0.2 0.6 0.2 0.3 0.2 0.1 0.6 0.2 0 0.4 0.1 0.4 0.2 0.4 0.2 0.3-0.1 0.3-0.6 0.9 0.5 0.3-0.2 0.4-0.5 0.3-0.6-0.1-1-0.5-0.3 0-0.2 0.1-0.1 0.3-0.2 0.3-0.4-0.1-0.3 0.3-0.1 0.2-5.7-3-1.7-1.3-2.2-2.3-0.8-0.4-0.9-0.2-0.2-0.1 0.1-0.3 0.2-0.2 0.9-0.3 0.4-0.4 0.3-0.4 0.3-0.4 0.4-0.8 0.3-1.1 0.3-1.1 0-0.9-0.3-0.5 0-0.3 0.5-0.4-0.3-0.1 0.1-0.3-0.1-0.8-0.5 0.1-0.4 0.7-0.2-0.3-0.3-0.1-0.3 0.2-0.3 0.2-0.3-0.5-0.2-1.3-0.3-0.6-1.1-1.4-0.2-0.4-0.3-0.9-2 1.3-0.5 0.1-0.5-0.2-1.1-0.5-0.5-0.2-3.1 0.2-5.2 0.3-14.5 0.9-2-0.5-1.1-1.4-2.1-9.6-1.6-8-0.8-8.3-0.1-0.1-0.6 0-11.2-0.1-0.2-0.1-0.1-0.4 0.2-11.9 4.2 0.7 7.6-7.5 3.7-1.8 2.2 0.8 5.2-4.6 11.8-7.9 12-5.9 1.1-1.2-0.6-0.4-1.7-1.4-0.2-2.4-1-0.1 0.1-1.2-0.9 0.4-0.7 2.8-0.4-3.3 2.1-2 0.6-3 1.8-3.1 0.1-3.5 2.5 1.5 1-2.7-0.2-2.3-0.7-1.3 1.7-2 2.2 0 0-2.2-5.7-4.3-2.3-2.9-0.3-1-1.4-1.1-1.5-0.6-1 0.2-2.4-1.8-0.3-26.2-1.9-2.3-3.2-2-2.3-2 0.1-4.1 1.6-8.2 1.9-3.2-1-3.6-2.6-2.1-0.4-3.4 46.3 0.8z"
      id="KAZ3251"
      class="area"
      name="South Kazakhstan">
 </path>
 <path d="M717.6 471.9l-0.6 0.1-0.3 0.3-0.8 2.1-0.2 0.4-0.6 0.6-0.7 0.6-0.7 0.3-0.7 0-1.5-0.7-0.5 0-1 0.1-5.5-0.8-1.6 0.1-0.7-0.2-1.4-0.9-0.6-0.4-0.7-0.5-1.5-0.4-0.7-0.4-0.7-0.6-2.1-1-2.8-0.5-0.8-0.3-2.5-2-0.4-0.4-0.6-1-0.3-0.5-0.5-0.2-1-0.3-0.8-0.6-1.1-0.1-0.5-0.3-1.2-1-0.7-0.4-0.8-0.1-0.7-0.3-1.3-1.2-0.7-0.4 0.7 0.9 0.2 0.6 0 0.5-0.4 0.2-3.9 0.5-0.4-0.1-0.9-0.9-0.5-0.2-0.7 0.6-0.9 2.3-0.9 0.5-1 0-0.4 0-4.2 1.8-1.2 0.7-0.3 0.3-0.3 0.5-0.9 2.7-0.5 0.9-0.2 0.5-0.1 0.6 0 0.5 0.3 1.1 0.1 0.6-0.1 0.6-0.6 1.4-1.3 2.9-0.3 1.2-0.1 1.3 0.2 1.1 0.4 1 1.8 3.5 0 0.5-0.7 0.2-1.5-0.6-2.2-0.4-0.3-0.4 0-0.7 0-1.1-0.3-0.4-0.6-0.2-1.7-0.1-0.5-0.2-0.4-0.2-0.5-0.4-0.9-0.4-1.1 0-3.1 0.5-0.8 0-0.9-0.2-0.8-0.4-0.6-0.6-0.9-1.6-0.5-0.6-0.8-0.4-3.5-0.9-1.7 0-0.9-0.1-2.9-2-1.6-0.6-3.1-0.2-0.4 0.1-0.7 0.4-0.4 0-0.7-0.2-2.9-1.6-1.5-0.4-0.4-0.1-0.4-0.3-0.3-0.2-0.4 0.1-0.9 0.3-1.7 0.1-0.8 0.3-2.7 1.7-0.4 0.1-0.3-0.1-1-0.9-0.2-0.1-0.3 0-0.4 0.2-1.2-0.4-0.6 0-0.4 0.4-0.3 0.5-0.3 0.5-0.4 0.4-0.4 0.2-0.5-0.1-0.6-0.3-0.5-0.2-0.5 0.2-0.5 1-0.3 0.4-0.4 0.3-0.9 0.3-0.2 0.3-0.1 0.7 0.1 1.3-0.2 0.5-0.4 0.4-2.1 0.4-0.9 0.5 0.3 1.3 0.2 0.3 0.9 0.8 0.2 0.3-0.1 0.4-0.2 0.3-0.4 0.2-0.4 0-1.1-0.8-0.4 0.4-0.3 0.5-0.3 0.7-0.2 0.6 0.1 0.4 0.2 0.4-0.2 0.4-0.8 1-0.3 0.3-0.1 0-1.3-1.3-0.1-0.4-0.6-0.4-0.1-1-1.8-0.7-2.5-2.8-1.1-0.5-0.7-1.1-1.1-1.5-1.6-1.4-1-0.5-1.8-0.4-1.3-2-0.3-2.9 0.2-2.5-0.6-1.1 0.4-1-1.4-1 0.6-1.1-0.7-0.7-1 0.1-0.8-0.9-0.5-2.2-1.9-0.7-1.7-1-1.2-0.3-2-0.1-2.6-0.9-1.1-0.6-1.4-2.1 0.1-1.5-0.9-0.8-1.3-0.5 0.6-1.1 2.2-3 5.9-17.8 0.8-1.2-0.2-2.6-2.6-16.9-7-25.1-5.4-14.1-3.1-5 122.5-0.7-3.1 6.3-0.6 8.4 0.5 5.7 0.5 1.9 0.5 1.7-6 0.4-0.8 2.9 2.1 3.3 2.4 0.1 2.4 0.5 0.4 3 1 2.3 9.4 8.7 0.5 4.7 1.3 3.6 3.6 3.4 5.4 0.8 4.1 2.4 2.4 2.3 2 2.5-0.2 3.8-1.2 3.1-6.2 10.6 2.1 0.9 2 0.5 0.9-0.4 0.8 1 2.2 0 2 1.2-1.6 2.4-1.6 3.3 0.5 1.6 0.2 1 0.3 0.9 0.7 1.2 2.1 1.7 2.9 1.2 2 1.8-1.7 1.2 4.7 0.7 0.8 0.8z"
      id="KAZ3252"
      class="area"
      name="Zhambyl">
 </path>
 <path d="M746.8 462.3l-1 1-1.3-0.4-1.6 0.1-0.8-0.7 0-1.6 0.7-0.6 0.7-1.4 0.9-1.1 0.8-0.8 1.5-0.5 0.9 0.8-0.1 3-0.7 2.2z"
      id="KAZ4829"
      class="area"
      name="Almaty City">
 </path>
 <path d="M613 182.5l-1.4 0.7-1.1-0.7-1-1.8-1.1-1.5-1.2-1.5-0.9-1.5-0.2-1.6 0.2-1.5 0.7-1.3 0.8-0.8 1.6-0.7 1.1 0.3 1.9 1.5 1.1 1.7 0.8 0.4 0.7 1.8-0.2 2.5-0.6 2.3-1.2 1.7z"
      id="KAZ4830"
      class="area"
      name="Astana">
 </path>
 <path d="M101 409.8l-0.2 0 0-2.3 0.2-0.3 0.3 0.6 0.5 0.5 0.4 0 0 0.2-0.9 0.7-0.3 0.6z m59.2-56.6l-0.7 0.4-0.5 0 0.2-0.6 1.3-1.6 0.3-0.1 0.1 0.5-0.1 0.3-0.2 0.5-0.4 0.6z"
   id="KAZ99" name="" class="area">
 </path>
 <circle cx="291.4" cy="177.7" id="0">
 </circle>
 <circle cx="729.5" cy="107.8" id="1">
 </circle>
 <circle cx="287.9" cy="179.9" id="2">
 </circle>
</svg>
